IntelOneMono-Bold-quadratic.ufo
<glyph name="ampersand" format="2">
  <advance width="614"/>
  <unicode hex="0026"/>
  <outline>
    <contour>
      <point x="331" y="669" type="qcurve"/>
      <point x="360" y="669"/>
      <point x="433" y="662"/>
      <point x="478" y="655" type="qcurve"/>
      <point x="465" y="548" type="line"/>
      <point x="421" y="554"/>
      <point x="365" y="559"/>
      <point x="343" y="559" type="qcurve"/>
      <point x="307" y="559"/>
      <point x="268" y="531"/>
      <point x="268" y="505" type="qcurve"/>
      <point x="268" y="490"/>
      <point x="279" y="460"/>
      <point x="293" y="439" type="qcurve"/>
      <point x="398" y="276" type="line"/>
      <point x="467" y="416" type="line"/>
      <point x="572" y="373" type="line"/>
      <point x="468" y="178" type="line"/>
      <point x="583" y="-1" type="line"/>
      <point x="434" y="-1" type="line"/>
      <point x="391" y="69" type="line"/>
      <point x="355" y="22"/>
      <point x="282" y="-14"/>
      <point x="224" y="-14" type="qcurve"/>
      <point x="140" y="-14"/>
      <point x="44" y="84"/>
      <point x="44" y="171" type="qcurve"/>
      <point x="44" y="250"/>
      <point x="110" y="334"/>
      <point x="191" y="362" type="qcurve"/>
      <point x="189" y="365" type="line"/>
      <point x="161" y="406"/>
      <point x="138" y="471"/>
      <point x="138" y="506" type="qcurve"/>
      <point x="138" y="577"/>
      <point x="245" y="669"/>
    </contour>
    <contour>
      <point x="174" y="188" type="qcurve"/>
      <point x="174" y="147"/>
      <point x="211" y="105"/>
      <point x="248" y="105" type="qcurve"/>
      <point x="279" y="105"/>
      <point x="314" y="126"/>
      <point x="330" y="151" type="qcurve"/>
      <point x="245" y="279" type="line"/>
      <point x="205" y="266"/>
      <point x="174" y="229"/>
    </contour>
  </outline>
</glyph>
<glyph name="parenleft" format="2">
  <advance width="614"/>
  <unicode hex="0028"/>
  <outline>
    <contour>
      <point x="98" y="326" type="qcurve"/>
      <point x="98" y="463"/>
      <point x="290" y="709"/>
      <point x="476" y="809" type="qcurve"/>
      <point x="555" y="718" type="line"/>
      <point x="395" y="634"/>
      <point x="245" y="447"/>
      <point x="245" y="329" type="qcurve"/>
      <point x="245" y="211"/>
      <point x="395" y="24"/>
      <point x="555" y="-60" type="qcurve"/>
      <point x="476" y="-151" type="line"/>
      <point x="290" y="-50"/>
      <point x="98" y="191"/>
    </contour>
  </outline>
</glyph>
<glyph name="parenright" format="2">
  <advance width="614"/>
  <unicode hex="0029"/>
  <outline>
    <contour>
      <point x="516" y="332" type="qcurve"/>
      <point x="516" y="195"/>
      <point x="324" y="-51"/>
      <point x="138" y="-151" type="qcurve"/>
      <point x="59" y="-60" type="line"/>
      <point x="219" y="24"/>
      <point x="369" y="211"/>
      <point x="369" y="329" type="qcurve"/>
      <point x="369" y="447"/>
      <point x="219" y="634"/>
      <point x="59" y="718" type="qcurve"/>
      <point x="138" y="809" type="line"/>
      <point x="324" y="708"/>
      <point x="516" y="467"/>
    </contour>
  </outline>
</glyph>
<glyph name="asterisk" format="2">
  <advance width="614"/>
  <unicode hex="002A"/>
  <outline>
    <contour>
      <point x="196" y="153" type="qcurve"/>
      <point x="103" y="233" type="line"/>
      <point x="114" y="246"/>
      <point x="145" y="272"/>
      <point x="180" y="295" type="qcurve"/>
      <point x="220" y="322"/>
      <point x="260" y="355"/>
      <point x="276" y="372" type="qcurve"/>
      <point x="253" y="379"/>
      <point x="202" y="387"/>
      <point x="154" y="390" type="qcurve"/>
      <point x="112" y="392"/>
      <point x="73" y="399"/>
      <point x="57" y="404" type="qcurve"/>
      <point x="98" y="521" type="line"/>
      <point x="114" y="516"/>
      <point x="149" y="496"/>
      <point x="183" y="472" type="qcurve"/>
      <point x="221" y="446"/>
      <point x="265" y="421"/>
      <point x="287" y="412" type="qcurve"/>
      <point x="286" y="436"/>
      <point x="277" y="488"/>
      <point x="264" y="534" type="qcurve"/>
      <point x="253" y="574"/>
      <point x="246" y="613"/>
      <point x="246" y="630" type="qcurve"/>
      <point x="370" y="630" type="line"/>
      <point x="370" y="613"/>
      <point x="363" y="574"/>
      <point x="352" y="532" type="qcurve"/>
      <point x="339" y="486"/>
      <point x="330" y="435"/>
      <point x="329" y="412" type="qcurve"/>
      <point x="351" y="421"/>
      <point x="395" y="446"/>
      <point x="433" y="472" type="qcurve"/>
      <point x="467" y="496"/>
      <point x="502" y="516"/>
      <point x="518" y="521" type="qcurve"/>
      <point x="560" y="404" type="line"/>
      <point x="544" y="399"/>
      <point x="505" y="392"/>
      <point x="463" y="390" type="qcurve"/>
      <point x="415" y="387"/>
      <point x="364" y="379"/>
      <point x="341" y="372" type="qcurve"/>
      <point x="357" y="355"/>
      <point x="397" y="322"/>
      <point x="437" y="295" type="qcurve"/>
      <point x="472" y="272"/>
      <point x="503" y="246"/>
      <point x="514" y="233" type="qcurve"/>
      <point x="421" y="153" type="line"/>
      <point x="410" y="166"/>
      <point x="389" y="200"/>
      <point x="371" y="238" type="qcurve"/>
      <point x="350" y="282"/>
      <point x="323" y="327"/>
      <point x="308" y="345" type="qcurve"/>
      <point x="293" y="327"/>
      <point x="266" y="282"/>
      <point x="246" y="238" type="qcurve"/>
      <point x="228" y="200"/>
      <point x="207" y="166"/>
    </contour>
  </outline>
</glyph>
<glyph name="zero" format="2">
  <advance width="614"/>
  <unicode hex="0030"/>
  <outline>
    <contour>
      <point x="309" y="670" type="qcurve"/>
      <point x="430" y="670"/>
      <point x="550" y="500"/>
      <point x="550" y="328" type="qcurve"/>
      <point x="550" y="156"/>
      <point x="428" y="-15"/>
      <point x="305" y="-15" type="qcurve"/>
      <point x="183" y="-15"/>
      <point x="64" y="154"/>
      <point x="64" y="326" type="qcurve"/>
      <point x="64" y="498"/>
      <point x="187" y="670"/>
    </contour>
    <contour>
      <point x="307" y="544" type="qcurve"/>
      <point x="246" y="544"/>
      <point x="200" y="449"/>
      <point x="200" y="328" type="qcurve"/>
      <point x="200" y="310"/>
      <point x="200" y="293"/>
      <point x="201" y="286" type="qcurve"/>
      <point x="400" y="469" type="line"/>
      <point x="389" y="508"/>
      <point x="346" y="544"/>
    </contour>
    <contour>
      <point x="307" y="110" type="qcurve"/>
      <point x="368" y="110"/>
      <point x="414" y="205"/>
      <point x="414" y="326" type="qcurve"/>
      <point x="414" y="344"/>
      <point x="414" y="360"/>
      <point x="413" y="367" type="qcurve"/>
      <point x="214" y="184" type="line"/>
      <point x="225" y="145"/>
      <point x="269" y="110"/>
    </contour>
  </outline>
</glyph>
<glyph name="three" format="2">
  <advance width="614"/>
  <unicode hex="0033"/>
  <outline>
    <contour>
      <point x="340" y="535" type="line"/>
      <point x="70" y="535" type="line"/>
      <point x="70" y="655" type="line"/>
      <point x="518" y="655" type="line"/>
      <point x="518" y="559" type="line"/>
      <point x="362" y="398" type="line"/>
      <point x="362" y="395" type="line"/>
      <point x="448" y="388"/>
      <point x="548" y="293"/>
      <point x="548" y="223" type="qcurve"/>
      <point x="548" y="121"/>
      <point x="382" y="9"/>
      <point x="214" y="-2" type="qcurve"/>
      <point x="89" y="-10" type="line"/>
      <point x="76" y="122" type="line"/>
      <point x="199" y="131" type="line"/>
      <point x="306" y="139"/>
      <point x="401" y="183"/>
      <point x="401" y="225" type="qcurve"/>
      <point x="401" y="257"/>
      <point x="350" y="290"/>
      <point x="302" y="290" type="qcurve"/>
      <point x="280" y="290"/>
      <point x="226" y="284"/>
      <point x="194" y="278" type="qcurve"/>
      <point x="164" y="354" type="line"/>
      <point x="340" y="532" type="line"/>
    </contour>
  </outline>
</glyph>
<glyph name="eight" format="2">
  <advance width="614"/>
  <unicode hex="0038"/>
  <outline>
    <contour>
      <point x="553" y="174" type="qcurve"/>
      <point x="553" y="89"/>
      <point x="416" y="-15"/>
      <point x="306" y="-15" type="qcurve"/>
      <point x="197" y="-15"/>
      <point x="61" y="88"/>
      <point x="61" y="172" type="qcurve"/>
      <point x="61" y="228"/>
      <point x="135" y="313"/>
      <point x="201" y="334" type="qcurve"/>
      <point x="201" y="339" type="line"/>
      <point x="142" y="358"/>
      <point x="78" y="435"/>
      <point x="78" y="487" type="qcurve"/>
      <point x="78" y="570"/>
      <point x="206" y="670"/>
      <point x="309" y="670" type="qcurve"/>
      <point x="411" y="670"/>
      <point x="536" y="571"/>
      <point x="536" y="489" type="qcurve"/>
      <point x="536" y="436"/>
      <point x="471" y="359"/>
      <point x="412" y="339" type="qcurve"/>
      <point x="412" y="334" type="line"/>
      <point x="478" y="314"/>
      <point x="553" y="230"/>
    </contour>
    <contour>
      <point x="214" y="468" type="qcurve"/>
      <point x="214" y="427"/>
      <point x="265" y="380"/>
      <point x="307" y="380" type="qcurve"/>
      <point x="349" y="380"/>
      <point x="400" y="429"/>
      <point x="400" y="470" type="qcurve"/>
      <point x="400" y="512"/>
      <point x="351" y="560"/>
      <point x="308" y="560" type="qcurve"/>
      <point x="266" y="560"/>
      <point x="214" y="510"/>
    </contour>
    <contour>
      <point x="198" y="191" type="qcurve"/>
      <point x="198" y="147"/>
      <point x="257" y="94"/>
      <point x="307" y="94" type="qcurve"/>
      <point x="356" y="94"/>
      <point x="416" y="148"/>
      <point x="416" y="193" type="qcurve"/>
      <point x="416" y="237"/>
      <point x="357" y="288"/>
      <point x="307" y="288" type="qcurve"/>
      <point x="257" y="288"/>
      <point x="198" y="235"/>
    </contour>
  </outline>
</glyph>
<glyph name="nine" format="2">
  <advance width="614"/>
  <unicode hex="0039"/>
  <outline>
    <contour>
      <point x="553" y="432" type="qcurve"/>
      <point x="553" y="338"/>
      <point x="470" y="172"/>
      <point x="377" y="78" type="qcurve"/>
      <point x="300" y="0" type="line"/>
      <point x="115" y="0" type="line"/>
      <point x="114" y="2" type="line"/>
      <point x="252" y="130" type="line"/>
      <point x="277" y="153"/>
      <point x="319" y="201"/>
      <point x="337" y="226" type="qcurve"/>
      <point x="321" y="223"/>
      <point x="289" y="219"/>
      <point x="273" y="219" type="qcurve"/>
      <point x="170" y="219"/>
      <point x="60" y="333"/>
      <point x="60" y="439" type="qcurve"/>
      <point x="60" y="542"/>
      <point x="201" y="670"/>
      <point x="314" y="670" type="qcurve"/>
      <point x="424" y="670"/>
      <point x="553" y="539"/>
    </contour>
    <contour>
      <point x="388" y="324" type="qcurve"/>
      <point x="398" y="350"/>
      <point x="408" y="402"/>
      <point x="408" y="428" type="qcurve"/>
      <point x="408" y="485"/>
      <point x="356" y="553"/>
      <point x="312" y="553" type="qcurve"/>
      <point x="262" y="553"/>
      <point x="207" y="492"/>
      <point x="207" y="437" type="qcurve"/>
      <point x="207" y="377"/>
      <point x="262" y="316"/>
      <point x="316" y="316" type="qcurve"/>
      <point x="337" y="316"/>
      <point x="372" y="320"/>
    </contour>
  </outline>
</glyph>
<glyph name="semicolon" format="2">
  <advance width="614"/>
  <unicode hex="003B"/>
  <outline>
    <contour>
      <point x="446" y="392" type="qcurve"/>
      <point x="446" y="343"/>
      <point x="383" y="292"/>
      <point x="322" y="292" type="qcurve"/>
      <point x="262" y="292"/>
      <point x="201" y="342"/>
      <point x="201" y="391" type="qcurve"/>
      <point x="201" y="439"/>
      <point x="265" y="491"/>
      <point x="324" y="491" type="qcurve"/>
      <point x="387" y="491"/>
      <point x="446" y="443"/>
    </contour>
    <contour>
      <point x="203" y="-171" type="qcurve"/>
      <point x="73" y="-171" type="line"/>
      <point x="73" y="-169" type="line"/>
      <point x="150" y="-65"/>
      <point x="204" y="63"/>
      <point x="215" y="160" type="qcurve"/>
      <point x="431" y="160" type="line"/>
      <point x="408" y="53"/>
      <point x="306" y="-97"/>
    </contour>
  </outline>
</glyph>
<glyph name="question" format="2">
  <advance width="614"/>
  <unicode hex="003F"/>
  <outline>
    <contour>
      <point x="313" y="277" type="qcurve"/>
      <point x="215" y="277" type="line"/>
      <point x="203" y="320"/>
      <point x="195" y="362"/>
      <point x="195" y="378" type="qcurve"/>
      <point x="195" y="400"/>
      <point x="224" y="430"/>
      <point x="260" y="447" type="qcurve"/>
      <point x="327" y="478" type="line"/>
      <point x="378" y="501"/>
      <point x="406" y="526"/>
      <point x="406" y="546" type="qcurve"/>
      <point x="406" y="575"/>
      <point x="360" y="605"/>
      <point x="315" y="605" type="qcurve"/>
      <point x="272" y="605"/>
      <point x="157" y="586"/>
      <point x="83" y="567" type="qcurve"/>
      <point x="61" y="692" type="line"/>
      <point x="147" y="710"/>
      <point x="263" y="725"/>
      <point x="329" y="725" type="qcurve"/>
      <point x="442" y="725"/>
      <point x="554" y="636"/>
      <point x="554" y="546" type="qcurve"/>
      <point x="554" y="493"/>
      <point x="502" y="426"/>
      <point x="429" y="391" type="qcurve"/>
      <point x="365" y="361" type="line"/>
      <point x="340" y="349"/>
      <point x="323" y="324"/>
    </contour>
    <contour>
      <point x="379" y="73" type="qcurve"/>
      <point x="379" y="27"/>
      <point x="321" y="-15"/>
      <point x="257" y="-15" type="qcurve"/>
      <point x="193" y="-15"/>
      <point x="137" y="26"/>
      <point x="137" y="73" type="qcurve"/>
      <point x="137" y="119"/>
      <point x="196" y="161"/>
      <point x="259" y="161" type="qcurve"/>
      <point x="323" y="161"/>
      <point x="379" y="121"/>
    </contour>
  </outline>
</glyph>
<glyph name="B" format="2">
  <advance width="614"/>
  <unicode hex="0042"/>
  <outline>
    <contour>
      <point x="78" y="0" type="line"/>
      <point x="78" y="655" type="line"/>
      <point x="341" y="655" type="line"/>
      <point x="445" y="655"/>
      <point x="551" y="578"/>
      <point x="551" y="502" type="qcurve"/>
      <point x="551" y="442"/>
      <point x="476" y="358"/>
      <point x="406" y="340" type="qcurve"/>
      <point x="406" y="336" type="line"/>
      <point x="487" y="324"/>
      <point x="574" y="236"/>
      <point x="574" y="166" type="qcurve"/>
      <point x="574" y="79"/>
      <point x="458" y="0"/>
      <point x="334" y="0" type="qcurve"/>
    </contour>
    <contour>
      <point x="406" y="471" type="qcurve"/>
      <point x="406" y="510"/>
      <point x="364" y="545"/>
      <point x="317" y="545" type="qcurve"/>
      <point x="221" y="545" type="line"/>
      <point x="221" y="379" type="line"/>
      <point x="297" y="384" type="line"/>
      <point x="352" y="387"/>
      <point x="406" y="430"/>
    </contour>
    <contour>
      <point x="430" y="186" type="qcurve"/>
      <point x="430" y="229"/>
      <point x="369" y="269"/>
      <point x="299" y="274" type="qcurve"/>
      <point x="221" y="280" type="line"/>
      <point x="221" y="109" type="line"/>
      <point x="325" y="109" type="line"/>
      <point x="379" y="109"/>
      <point x="430" y="146"/>
    </contour>
  </outline>
</glyph>
<glyph name="C" format="2">
  <advance width="614"/>
  <unicode hex="0043"/>
  <outline>
    <contour>
      <point x="335" y="-15" type="qcurve"/>
      <point x="200" y="-15"/>
      <point x="50" y="163"/>
      <point x="50" y="326" type="qcurve"/>
      <point x="50" y="477"/>
      <point x="222" y="670"/>
      <point x="359" y="670" type="qcurve"/>
      <point x="414" y="670"/>
      <point x="513" y="633"/>
      <point x="573" y="590" type="qcurve"/>
      <point x="510" y="489" type="line"/>
      <point x="463" y="522"/>
      <point x="397" y="550"/>
      <point x="362" y="550" type="qcurve"/>
      <point x="289" y="550"/>
      <point x="197" y="430"/>
      <point x="197" y="328" type="qcurve"/>
      <point x="197" y="221"/>
      <point x="281" y="105"/>
      <point x="355" y="105" type="qcurve"/>
      <point x="387" y="105"/>
      <point x="468" y="137"/>
      <point x="517" y="169" type="qcurve"/>
      <point x="581" y="69" type="line"/>
      <point x="520" y="28"/>
      <point x="395" y="-15"/>
    </contour>
  </outline>
</glyph>
<glyph name="G" format="2">
  <advance width="614"/>
  <unicode hex="0047"/>
  <outline>
    <contour>
      <point x="509" y="655" type="qcurve"/>
      <point x="497" y="536" type="line"/>
      <point x="469" y="540"/>
      <point x="432" y="543"/>
      <point x="413" y="543" type="qcurve"/>
      <point x="304" y="543"/>
      <point x="197" y="436"/>
      <point x="197" y="328" type="qcurve"/>
      <point x="197" y="208"/>
      <point x="280" y="105"/>
      <point x="377" y="105" type="qcurve"/>
      <point x="386" y="105"/>
      <point x="407" y="107"/>
      <point x="423" y="110" type="qcurve"/>
      <point x="423" y="263" type="line"/>
      <point x="309" y="263" type="line"/>
      <point x="309" y="374" type="line"/>
      <point x="559" y="374" type="line"/>
      <point x="559" y="13" type="line"/>
      <point x="506" y="-1"/>
      <point x="406" y="-15"/>
      <point x="360" y="-15" type="qcurve"/>
      <point x="205" y="-15"/>
      <point x="49" y="155"/>
      <point x="49" y="323" type="qcurve"/>
      <point x="49" y="486"/>
      <point x="233" y="665"/>
      <point x="401" y="665" type="qcurve"/>
      <point x="426" y="665"/>
      <point x="470" y="661"/>
    </contour>
  </outline>
</glyph>
<glyph name="I" format="2">
  <advance width="614"/>
  <unicode hex="0049"/>
  <outline>
    <contour>
      <point x="113" y="0" type="line"/>
      <point x="113" y="80" type="line"/>
      <point x="236" y="105" type="line"/>
      <point x="236" y="550" type="line"/>
      <point x="113" y="575" type="line"/>
      <point x="113" y="655" type="line"/>
      <point x="501" y="655" type="line"/>
      <point x="501" y="575" type="line"/>
      <point x="380" y="550" type="line"/>
      <point x="380" y="105" type="line"/>
      <point x="501" y="80" type="line"/>
      <point x="501" y="0" type="line"/>
    </contour>
  </outline>
</glyph>
<glyph name="J" format="2">
  <advance width="614"/>
  <unicode hex="004A"/>
  <outline>
    <contour>
      <point x="329" y="-15" type="qcurve"/>
      <point x="253" y="-15"/>
      <point x="120" y="49"/>
      <point x="30" y="128" type="qcurve"/>
      <point x="118" y="234" type="line"/>
      <point x="196" y="170"/>
      <point x="286" y="118"/>
      <point x="319" y="118" type="qcurve"/>
      <point x="359" y="118"/>
      <point x="398" y="163"/>
      <point x="398" y="208" type="qcurve"/>
      <point x="398" y="655" type="line"/>
      <point x="543" y="655" type="line"/>
      <point x="543" y="195" type="line"/>
      <point x="543" y="98"/>
      <point x="429" y="-15"/>
    </contour>
  </outline>
</glyph>
<glyph name="K" format="2">
  <advance width="614"/>
  <unicode hex="004B"/>
  <outline>
    <contour>
      <point x="78" y="655" type="line"/>
      <point x="223" y="655" type="line"/>
      <point x="223" y="343" type="line"/>
      <point x="432" y="655" type="line"/>
      <point x="600" y="655" type="line"/>
      <point x="600" y="653" type="line"/>
      <point x="377" y="339" type="line"/>
      <point x="604" y="2" type="line"/>
      <point x="604" y="0" type="line"/>
      <point x="427" y="0" type="line"/>
      <point x="223" y="313" type="line"/>
      <point x="223" y="0" type="line"/>
      <point x="78" y="0" type="line"/>
    </contour>
  </outline>
</glyph>
<glyph name="L" format="2">
  <advance width="614"/>
  <unicode hex="004C"/>
  <outline>
    <contour>
      <point x="87" y="0" type="line"/>
      <point x="87" y="655" type="line"/>
      <point x="232" y="655" type="line"/>
      <point x="232" y="119" type="line"/>
      <point x="553" y="119" type="line"/>
      <point x="553" y="0" type="line"/>
    </contour>
  </outline>
</glyph>
<glyph name="M" format="2">
  <advance width="614"/>
  <unicode hex="004D"/>
  <outline>
    <contour>
      <point x="397" y="655" type="line"/>
      <point x="532" y="655" type="line"/>
      <point x="562" y="0" type="line"/>
      <point x="429" y="0" type="line"/>
      <point x="415" y="461" type="line"/>
      <point x="316" y="165" type="line"/>
      <point x="296" y="165" type="line"/>
      <point x="197" y="456" type="line"/>
      <point x="183" y="0" type="line"/>
      <point x="52" y="0" type="line"/>
      <point x="82" y="655" type="line"/>
      <point x="221" y="655" type="line"/>
      <point x="309" y="391" type="line"/>
    </contour>
  </outline>
</glyph>
<glyph name="P" format="2">
  <advance width="614"/>
  <unicode hex="0050"/>
  <outline>
    <contour>
      <point x="78" y="0" type="line"/>
      <point x="78" y="655" type="line"/>
      <point x="309" y="655" type="line"/>
      <point x="436" y="655"/>
      <point x="576" y="540"/>
      <point x="576" y="436" type="qcurve"/>
      <point x="576" y="327"/>
      <point x="436" y="213"/>
      <point x="304" y="213" type="qcurve"/>
      <point x="223" y="213" type="line"/>
      <point x="223" y="0" type="line"/>
    </contour>
    <contour>
      <point x="429" y="434" type="qcurve"/>
      <point x="429" y="484"/>
      <point x="373" y="535"/>
      <point x="319" y="535" type="qcurve"/>
      <point x="223" y="535" type="line"/>
      <point x="223" y="330" type="line"/>
      <point x="314" y="330" type="line"/>
      <point x="370" y="330"/>
      <point x="429" y="384"/>
    </contour>
  </outline>
</glyph>
<glyph name="R" format="2">
  <advance width="614"/>
  <unicode hex="0052"/>
  <outline>
    <contour>
      <point x="465" y="177" type="qcurve"/>
      <point x="601" y="4" type="line"/>
      <point x="601" y="0" type="line"/>
      <point x="421" y="0" type="line"/>
      <point x="320" y="155" type="line"/>
      <point x="292" y="199"/>
      <point x="252" y="231"/>
      <point x="222" y="237" type="qcurve"/>
      <point x="222" y="0" type="line"/>
      <point x="78" y="0" type="line"/>
      <point x="78" y="655" type="line"/>
      <point x="328" y="655" type="line"/>
      <point x="440" y="655"/>
      <point x="554" y="558"/>
      <point x="554" y="464" type="qcurve"/>
      <point x="554" y="384"/>
      <point x="458" y="290"/>
      <point x="360" y="273" type="qcurve"/>
      <point x="360" y="266" type="line"/>
      <point x="393" y="249"/>
      <point x="441" y="208"/>
    </contour>
    <contour>
      <point x="409" y="451" type="qcurve"/>
      <point x="409" y="498"/>
      <point x="359" y="541"/>
      <point x="305" y="541" type="qcurve"/>
      <point x="222" y="541" type="line"/>
      <point x="222" y="339" type="line"/>
      <point x="246" y="342" type="line"/>
      <point x="333" y="354"/>
      <point x="409" y="402"/>
    </contour>
  </outline>
</glyph>
<glyph name="S" format="2">
  <advance width="614"/>
  <unicode hex="0053"/>
  <outline>
    <contour>
      <point x="302" y="106" type="qcurve"/>
      <point x="356" y="106"/>
      <point x="406" y="140"/>
      <point x="406" y="176" type="qcurve"/>
      <point x="406" y="209"/>
      <point x="364" y="242"/>
      <point x="302" y="262" type="qcurve"/>
      <point x="240" y="282" type="line"/>
      <point x="155" y="309"/>
      <point x="79" y="400"/>
      <point x="79" y="476" type="qcurve"/>
      <point x="79" y="560"/>
      <point x="212" y="667"/>
      <point x="323" y="667" type="qcurve"/>
      <point x="366" y="667"/>
      <point x="453" y="656"/>
      <point x="525" y="641" type="qcurve"/>
      <point x="509" y="519" type="line"/>
      <point x="439" y="535"/>
      <point x="350" y="548"/>
      <point x="319" y="548" type="qcurve"/>
      <point x="271" y="548"/>
      <point x="223" y="518"/>
      <point x="223" y="487" type="qcurve"/>
      <point x="223" y="453"/>
      <point x="267" y="416"/>
      <point x="323" y="399" type="qcurve"/>
      <point x="389" y="379" type="line"/>
      <point x="478" y="352"/>
      <point x="551" y="266"/>
      <point x="551" y="187" type="qcurve"/>
      <point x="551" y="94"/>
      <point x="417" y="-14"/>
      <point x="299" y="-14" type="qcurve"/>
      <point x="245" y="-14"/>
      <point x="129" y="7"/>
      <point x="58" y="30" type="qcurve"/>
      <point x="84" y="151" type="line"/>
      <point x="162" y="127"/>
      <point x="264" y="106"/>
    </contour>
  </outline>
</glyph>
<glyph name="U" format="2">
  <advance width="614"/>
  <unicode hex="0055"/>
  <outline>
    <contour>
      <point x="307" y="118" type="qcurve"/>
      <point x="356" y="118"/>
      <point x="403" y="171"/>
      <point x="403" y="226" type="qcurve"/>
      <point x="403" y="655" type="line"/>
      <point x="547" y="655" type="line"/>
      <point x="547" y="228" type="line"/>
      <point x="547" y="103"/>
      <point x="428" y="-15"/>
      <point x="303" y="-15" type="qcurve"/>
      <point x="182" y="-15"/>
      <point x="67" y="104"/>
      <point x="67" y="228" type="qcurve"/>
      <point x="67" y="655" type="line"/>
      <point x="212" y="655" type="line"/>
      <point x="212" y="226" type="line"/>
      <point x="212" y="171"/>
      <point x="259" y="118"/>
    </contour>
  </outline>
</glyph>
<glyph name="X" format="2">
  <advance width="614"/>
  <unicode hex="0058"/>
  <outline>
    <contour>
      <point x="177" y="0" type="line"/>
      <point x="22" y="0" type="line"/>
      <point x="226" y="334" type="line"/>
      <point x="35" y="655" type="line"/>
      <point x="197" y="655" type="line"/>
      <point x="308" y="447" type="line"/>
      <point x="420" y="655" type="line"/>
      <point x="576" y="655" type="line"/>
      <point x="387" y="338" type="line"/>
      <point x="592" y="0" type="line"/>
      <point x="429" y="0" type="line"/>
      <point x="304" y="227" type="line"/>
    </contour>
  </outline>
</glyph>
<glyph name="Y" format="2">
  <advance width="614"/>
  <unicode hex="0059"/>
  <outline>
    <contour>
      <point x="442" y="655" type="line"/>
      <point x="599" y="655" type="line"/>
      <point x="379" y="277" type="line"/>
      <point x="379" y="0" type="line"/>
      <point x="235" y="0" type="line"/>
      <point x="235" y="276" type="line"/>
      <point x="15" y="655" type="line"/>
      <point x="177" y="655" type="line"/>
      <point x="309" y="414" type="line"/>
    </contour>
  </outline>
</glyph>
<glyph name="bracketleft" format="2">
  <advance width="614"/>
  <unicode hex="005B"/>
  <outline>
    <contour>
      <point x="545" y="-148" type="line"/>
      <point x="154" y="-148" type="line"/>
      <point x="154" y="797" type="line"/>
      <point x="545" y="797" type="line"/>
      <point x="545" y="678" type="line"/>
      <point x="299" y="678" type="line"/>
      <point x="299" y="-28" type="line"/>
      <point x="545" y="-28" type="line"/>
    </contour>
  </outline>
</glyph>
<glyph name="backslash" format="2">
  <advance width="614"/>
  <unicode hex="005C"/>
  <outline>
    <contour>
      <point x="438" y="-100" type="line"/>
      <point x="40" y="755" type="line"/>
      <point x="175" y="755" type="line"/>
      <point x="574" y="-100" type="line"/>
    </contour>
  </outline>
</glyph>
<glyph name="bracketright" format="2">
  <advance width="614"/>
  <unicode hex="005D"/>
  <outline>
    <contour>
      <point x="315" y="678" type="line"/>
      <point x="69" y="678" type="line"/>
      <point x="69" y="797" type="line"/>
      <point x="460" y="797" type="line"/>
      <point x="460" y="-148" type="line"/>
      <point x="69" y="-148" type="line"/>
      <point x="69" y="-28" type="line"/>
      <point x="315" y="-28" type="line"/>
    </contour>
  </outline>
</glyph>
<glyph name="underscore" format="2">
  <advance width="614"/>
  <unicode hex="005F"/>
  <outline>
    <contour>
      <point x="78" y="-161" type="line"/>
      <point x="78" y="-26" type="line"/>
      <point x="536" y="-26" type="line"/>
      <point x="536" y="-161" type="line"/>
    </contour>
  </outline>
</glyph>
<glyph name="b" format="2">
  <advance width="614"/>
  <unicode hex="0062"/>
  <outline>
    <contour>
      <point x="75" y="710" type="line"/>
      <point x="220" y="710" type="line"/>
      <point x="220" y="432" type="line"/>
      <point x="251" y="462"/>
      <point x="322" y="490"/>
      <point x="365" y="490" type="qcurve"/>
      <point x="457" y="490"/>
      <point x="570" y="361"/>
      <point x="570" y="252" type="qcurve"/>
      <point x="570" y="135"/>
      <point x="423" y="-8"/>
      <point x="298" y="-8" type="qcurve"/>
      <point x="261" y="-8"/>
      <point x="191" y="8"/>
      <point x="160" y="23" type="qcurve"/>
      <point x="91" y="0" type="line"/>
      <point x="75" y="0" type="line"/>
    </contour>
    <contour>
      <point x="420" y="241" type="qcurve"/>
      <point x="420" y="302"/>
      <point x="360" y="371"/>
      <point x="307" y="371" type="qcurve"/>
      <point x="285" y="371"/>
      <point x="243" y="356"/>
      <point x="220" y="339" type="qcurve"/>
      <point x="220" y="129" type="line"/>
      <point x="237" y="120"/>
      <point x="269" y="112"/>
      <point x="287" y="112" type="qcurve"/>
      <point x="348" y="112"/>
      <point x="420" y="184"/>
    </contour>
  </outline>
</glyph>
<glyph name="c" format="2">
  <advance width="614"/>
  <unicode hex="0063"/>
  <outline>
    <contour>
      <point x="337" y="368" type="qcurve"/>
      <point x="279" y="368"/>
      <point x="207" y="296"/>
      <point x="207" y="239" type="qcurve"/>
      <point x="207" y="179"/>
      <point x="275" y="108"/>
      <point x="329" y="108" type="qcurve"/>
      <point x="370" y="108"/>
      <point x="444" y="132"/>
      <point x="497" y="161" type="qcurve"/>
      <point x="562" y="63" type="line"/>
      <point x="494" y="21"/>
      <point x="382" y="-14"/>
      <point x="315" y="-14" type="qcurve"/>
      <point x="197" y="-14"/>
      <point x="55" y="124"/>
      <point x="55" y="238" type="qcurve"/>
      <point x="55" y="344"/>
      <point x="214" y="490"/>
      <point x="330" y="490" type="qcurve"/>
      <point x="393" y="490"/>
      <point x="496" y="455"/>
      <point x="557" y="415" type="qcurve"/>
      <point x="490" y="312" type="line"/>
      <point x="445" y="342"/>
      <point x="378" y="368"/>
    </contour>
  </outline>
</glyph>
<glyph name="d" format="2">
  <advance width="614"/>
  <unicode hex="0064"/>
  <outline>
    <contour>
      <point x="249" y="-11" type="qcurve"/>
      <point x="157" y="-11"/>
      <point x="44" y="118"/>
      <point x="44" y="227" type="qcurve"/>
      <point x="44" y="339"/>
      <point x="182" y="482"/>
      <point x="290" y="482" type="qcurve"/>
      <point x="324" y="482"/>
      <point x="373" y="471"/>
      <point x="394" y="460" type="qcurve"/>
      <point x="394" y="710" type="line"/>
      <point x="539" y="710" type="line"/>
      <point x="539" y="0" type="line"/>
      <point x="413" y="0" type="line"/>
      <point x="404" y="57" type="line"/>
      <point x="371" y="22"/>
      <point x="296" y="-11"/>
    </contour>
    <contour>
      <point x="320" y="366" type="qcurve"/>
      <point x="262" y="366"/>
      <point x="194" y="297"/>
      <point x="194" y="238" type="qcurve"/>
      <point x="194" y="177"/>
      <point x="254" y="108"/>
      <point x="307" y="108" type="qcurve"/>
      <point x="329" y="108"/>
      <point x="371" y="123"/>
      <point x="394" y="139" type="qcurve"/>
      <point x="394" y="346" type="line"/>
      <point x="376" y="356"/>
      <point x="341" y="366"/>
    </contour>
  </outline>
</glyph>
<glyph name="f" format="2">
  <advance width="614"/>
  <unicode hex="0066"/>
  <outline>
    <contour>
      <point x="216" y="338" type="line"/>
      <point x="68" y="338" type="line"/>
      <point x="68" y="460" type="line"/>
      <point x="216" y="460" type="line"/>
      <point x="216" y="496" type="line"/>
      <point x="216" y="614"/>
      <point x="299" y="703"/>
      <point x="421" y="711" type="qcurve"/>
      <point x="557" y="720" type="line"/>
      <point x="567" y="598" type="line"/>
      <point x="434" y="589" type="line"/>
      <point x="389" y="585"/>
      <point x="355" y="552"/>
      <point x="355" y="510" type="qcurve"/>
      <point x="355" y="460" type="line"/>
      <point x="524" y="460" type="line"/>
      <point x="524" y="338" type="line"/>
      <point x="360" y="338" type="line"/>
      <point x="360" y="0" type="line"/>
      <point x="216" y="0" type="line"/>
    </contour>
  </outline>
</glyph>
<glyph name="g" format="2">
  <advance width="614"/>
  <unicode hex="0067"/>
  <outline>
    <contour>
      <point x="244" y="13" type="qcurve"/>
      <point x="157" y="13"/>
      <point x="44" y="139"/>
      <point x="44" y="241" type="qcurve"/>
      <point x="44" y="353"/>
      <point x="192" y="490"/>
      <point x="317" y="490" type="qcurve"/>
      <point x="351" y="490"/>
      <point x="416" y="476"/>
      <point x="447" y="463" type="qcurve"/>
      <point x="529" y="483" type="line"/>
      <point x="540" y="483" type="line"/>
      <point x="540" y="13" type="line"/>
      <point x="540" y="-119"/>
      <point x="432" y="-224"/>
      <point x="298" y="-231" type="qcurve"/>
      <point x="134" y="-239" type="line"/>
      <point x="129" y="-117" type="line"/>
      <point x="283" y="-108" type="line"/>
      <point x="343" y="-104"/>
      <point x="396" y="-49"/>
      <point x="396" y="10" type="qcurve"/>
      <point x="396" y="70" type="line"/>
      <point x="365" y="40"/>
      <point x="292" y="13"/>
    </contour>
    <contour>
      <point x="328" y="370" type="qcurve"/>
      <point x="268" y="370"/>
      <point x="194" y="304"/>
      <point x="194" y="252" type="qcurve"/>
      <point x="194" y="196"/>
      <point x="254" y="132"/>
      <point x="307" y="132" type="qcurve"/>
      <point x="330" y="132"/>
      <point x="373" y="147"/>
      <point x="396" y="163" type="qcurve"/>
      <point x="396" y="353" type="line"/>
      <point x="379" y="362"/>
      <point x="347" y="370"/>
    </contour>
  </outline>
</glyph>
<glyph name="h" format="2">
  <advance width="614"/>
  <unicode hex="0068"/>
  <outline>
    <contour>
      <point x="78" y="710" type="line"/>
      <point x="223" y="710" type="line"/>
      <point x="223" y="405" type="line"/>
      <point x="277" y="449"/>
      <point x="361" y="488"/>
      <point x="404" y="488" type="qcurve"/>
      <point x="474" y="488"/>
      <point x="541" y="409"/>
      <point x="541" y="327" type="qcurve"/>
      <point x="541" y="0" type="line"/>
      <point x="396" y="0" type="line"/>
      <point x="396" y="300" type="line"/>
      <point x="396" y="327"/>
      <point x="373" y="351"/>
      <point x="349" y="351" type="qcurve"/>
      <point x="328" y="351"/>
      <point x="268" y="317"/>
      <point x="223" y="280" type="qcurve"/>
      <point x="223" y="0" type="line"/>
      <point x="78" y="0" type="line"/>
    </contour>
  </outline>
</glyph>
<glyph name="i" format="2">
  <advance width="614"/>
  <unicode hex="0069"/>
  <outline>
    <contour>
      <point x="424" y="664" type="qcurve"/>
      <point x="424" y="624"/>
      <point x="368" y="578"/>
      <point x="319" y="578" type="qcurve"/>
      <point x="270" y="578"/>
      <point x="216" y="623"/>
      <point x="216" y="664" type="qcurve"/>
      <point x="216" y="703"/>
      <point x="273" y="751"/>
      <point x="320" y="751" type="qcurve"/>
      <point x="371" y="751"/>
      <point x="424" y="706"/>
    </contour>
    <contour>
      <point x="93" y="0" type="line"/>
      <point x="93" y="122" type="line"/>
      <point x="249" y="122" type="line"/>
      <point x="249" y="355" type="line"/>
      <point x="113" y="355" type="line"/>
      <point x="113" y="477" type="line"/>
      <point x="394" y="477" type="line"/>
      <point x="394" y="122" type="line"/>
      <point x="552" y="122" type="line"/>
      <point x="552" y="0" type="line"/>
    </contour>
  </outline>
</glyph>
<glyph name="k" format="2">
  <advance width="614"/>
  <unicode hex="006B"/>
  <outline>
    <contour>
      <point x="82" y="710" type="line"/>
      <point x="226" y="710" type="line"/>
      <point x="226" y="261" type="line"/>
      <point x="408" y="477" type="line"/>
      <point x="586" y="477" type="line"/>
      <point x="586" y="475" type="line"/>
      <point x="372" y="245" type="line"/>
      <point x="589" y="2" type="line"/>
      <point x="589" y="0" type="line"/>
      <point x="403" y="0" type="line"/>
      <point x="226" y="218" type="line"/>
      <point x="226" y="0" type="line"/>
      <point x="82" y="0" type="line"/>
    </contour>
  </outline>
</glyph>
<glyph name="m" format="2">
  <advance width="614"/>
  <unicode hex="006D"/>
  <outline>
    <contour>
      <point x="41" y="477" type="line"/>
      <point x="140" y="477" type="line"/>
      <point x="152" y="385" type="line"/>
      <point x="173" y="385" type="line"/>
      <point x="204" y="439"/>
      <point x="254" y="481"/>
      <point x="293" y="481" type="qcurve"/>
      <point x="330" y="481"/>
      <point x="364" y="435"/>
      <point x="364" y="385" type="qcurve"/>
      <point x="364" y="385" type="line"/>
      <point x="389" y="385" type="line"/>
      <point x="422" y="442"/>
      <point x="464" y="481"/>
      <point x="500" y="481" type="qcurve"/>
      <point x="541" y="481"/>
      <point x="577" y="431"/>
      <point x="577" y="373" type="qcurve"/>
      <point x="577" y="0" type="line"/>
      <point x="454" y="0" type="line"/>
      <point x="454" y="286" type="line"/>
      <point x="454" y="306"/>
      <point x="437" y="325"/>
      <point x="419" y="325" type="qcurve"/>
      <point x="407" y="325"/>
      <point x="382" y="314"/>
      <point x="367" y="302" type="qcurve"/>
      <point x="367" y="0" type="line"/>
      <point x="253" y="0" type="line"/>
      <point x="253" y="288" type="line"/>
      <point x="253" y="307"/>
      <point x="236" y="325"/>
      <point x="219" y="325" type="qcurve"/>
      <point x="206" y="325"/>
      <point x="180" y="313"/>
      <point x="164" y="300" type="qcurve"/>
      <point x="164" y="0" type="line"/>
      <point x="41" y="0" type="line"/>
    </contour>
  </outline>
</glyph>
<glyph name="n" format="2">
  <advance width="614"/>
  <unicode hex="006E"/>
  <outline>
    <contour>
      <point x="78" y="477" type="line"/>
      <point x="204" y="477" type="line"/>
      <point x="212" y="396" type="line"/>
      <point x="271" y="446"/>
      <point x="360" y="488"/>
      <point x="404" y="488" type="qcurve"/>
      <point x="474" y="488"/>
      <point x="541" y="409"/>
      <point x="541" y="327" type="qcurve"/>
      <point x="541" y="0" type="line"/>
      <point x="396" y="0" type="line"/>
      <point x="396" y="300" type="line"/>
      <point x="396" y="327"/>
      <point x="373" y="351"/>
      <point x="349" y="351" type="qcurve"/>
      <point x="328" y="351"/>
      <point x="268" y="317"/>
      <point x="223" y="280" type="qcurve"/>
      <point x="223" y="0" type="line"/>
      <point x="78" y="0" type="line"/>
    </contour>
  </outline>
</glyph>
<glyph name="o" format="2">
  <advance width="614"/>
  <unicode hex="006F"/>
  <outline>
    <contour>
      <point x="567" y="239" type="qcurve"/>
      <point x="567" y="128"/>
      <point x="420" y="-15"/>
      <point x="305" y="-15" type="qcurve"/>
      <point x="191" y="-15"/>
      <point x="47" y="126"/>
      <point x="47" y="238" type="qcurve"/>
      <point x="47" y="349"/>
      <point x="195" y="492"/>
      <point x="309" y="492" type="qcurve"/>
      <point x="423" y="492"/>
      <point x="567" y="351"/>
    </contour>
    <contour>
      <point x="197" y="239" type="qcurve"/>
      <point x="197" y="173"/>
      <point x="253" y="105"/>
      <point x="307" y="105" type="qcurve"/>
      <point x="361" y="105"/>
      <point x="417" y="173"/>
      <point x="417" y="238" type="qcurve"/>
      <point x="417" y="303"/>
      <point x="361" y="372"/>
      <point x="307" y="372" type="qcurve"/>
      <point x="253" y="372"/>
      <point x="197" y="304"/>
    </contour>
  </outline>
</glyph>
<glyph name="q" format="2">
  <advance width="614"/>
  <unicode hex="0071"/>
  <outline>
    <contour>
      <point x="249" y="-13" type="qcurve"/>
      <point x="157" y="-13"/>
      <point x="44" y="116"/>
      <point x="44" y="225" type="qcurve"/>
      <point x="44" y="342"/>
      <point x="191" y="485"/>
      <point x="316" y="485" type="qcurve"/>
      <point x="353" y="485"/>
      <point x="423" y="469"/>
      <point x="454" y="454" type="qcurve"/>
      <point x="523" y="477" type="line"/>
      <point x="539" y="477" type="line"/>
      <point x="539" y="-230" type="line"/>
      <point x="394" y="-230" type="line"/>
      <point x="394" y="45" type="line"/>
      <point x="363" y="15"/>
      <point x="292" y="-13"/>
    </contour>
    <contour>
      <point x="327" y="365" type="qcurve"/>
      <point x="266" y="365"/>
      <point x="194" y="293"/>
      <point x="194" y="236" type="qcurve"/>
      <point x="194" y="175"/>
      <point x="254" y="106"/>
      <point x="307" y="106" type="qcurve"/>
      <point x="329" y="106"/>
      <point x="371" y="121"/>
      <point x="394" y="137" type="qcurve"/>
      <point x="394" y="348" type="line"/>
      <point x="377" y="357"/>
      <point x="345" y="365"/>
    </contour>
  </outline>
</glyph>
<glyph name="s" format="2">
  <advance width="614"/>
  <unicode hex="0073"/>
  <outline>
    <contour>
      <point x="540" y="143" type="qcurve"/>
      <point x="540" y="73"/>
      <point x="406" y="-14"/>
      <point x="292" y="-14" type="qcurve"/>
      <point x="239" y="-14"/>
      <point x="145" y="-6"/>
      <point x="77" y="4" type="qcurve"/>
      <point x="90" y="120" type="line"/>
      <point x="150" y="110"/>
      <point x="262" y="99"/>
      <point x="297" y="99" type="qcurve"/>
      <point x="346" y="99"/>
      <point x="393" y="117"/>
      <point x="393" y="137" type="qcurve"/>
      <point x="393" y="154"/>
      <point x="368" y="172"/>
      <point x="335" y="179" type="qcurve"/>
      <point x="229" y="199" type="line"/>
      <point x="150" y="214"/>
      <point x="83" y="276"/>
      <point x="83" y="338" type="qcurve"/>
      <point x="83" y="413"/>
      <point x="205" y="491"/>
      <point x="324" y="491" type="qcurve"/>
      <point x="361" y="491"/>
      <point x="462" y="482"/>
      <point x="511" y="475" type="qcurve"/>
      <point x="499" y="359" type="line"/>
      <point x="443" y="368"/>
      <point x="349" y="378"/>
      <point x="319" y="378" type="qcurve"/>
      <point x="272" y="378"/>
      <point x="231" y="364"/>
      <point x="231" y="346" type="qcurve"/>
      <point x="231" y="331"/>
      <point x="251" y="316"/>
      <point x="284" y="309" type="qcurve"/>
      <point x="387" y="289" type="line"/>
      <point x="470" y="273"/>
      <point x="540" y="208"/>
    </contour>
  </outline>
</glyph>
<glyph name="t" format="2">
  <advance width="614"/>
  <unicode hex="0074"/>
  <outline>
    <contour>
      <point x="197" y="198" type="qcurve"/>
      <point x="197" y="355" type="line"/>
      <point x="50" y="355" type="line"/>
      <point x="50" y="477" type="line"/>
      <point x="199" y="477" type="line"/>
      <point x="199" y="640" type="line"/>
      <point x="338" y="640" type="line"/>
      <point x="338" y="477" type="line"/>
      <point x="525" y="477" type="line"/>
      <point x="525" y="355" type="line"/>
      <point x="341" y="355" type="line"/>
      <point x="341" y="213" type="line"/>
      <point x="341" y="164"/>
      <point x="373" y="129"/>
      <point x="420" y="126" type="qcurve"/>
      <point x="549" y="118" type="line"/>
      <point x="538" y="-6" type="line"/>
      <point x="385" y="0" type="line"/>
      <point x="273" y="5"/>
      <point x="197" y="82"/>
    </contour>
  </outline>
</glyph>
<glyph name="u" format="2">
  <advance width="614"/>
  <unicode hex="0075"/>
  <outline>
    <contour>
      <point x="536" y="477" type="line"/>
      <point x="536" y="0" type="line"/>
      <point x="409" y="0" type="line"/>
      <point x="402" y="81" type="line"/>
      <point x="344" y="32"/>
      <point x="255" y="-11"/>
      <point x="210" y="-11" type="qcurve"/>
      <point x="140" y="-11"/>
      <point x="73" y="68"/>
      <point x="73" y="150" type="qcurve"/>
      <point x="73" y="477" type="line"/>
      <point x="218" y="477" type="line"/>
      <point x="218" y="177" type="line"/>
      <point x="218" y="150"/>
      <point x="241" y="126"/>
      <point x="265" y="126" type="qcurve"/>
      <point x="286" y="126"/>
      <point x="346" y="160"/>
      <point x="391" y="197" type="qcurve"/>
      <point x="391" y="477" type="line"/>
    </contour>
  </outline>
</glyph>
<glyph name="v" format="2">
  <advance width="614"/>
  <unicode hex="0076"/>
  <outline>
    <contour>
      <point x="217" y="0" type="line"/>
      <point x="34" y="477" type="line"/>
      <point x="192" y="477" type="line"/>
      <point x="310" y="128" type="line"/>
      <point x="428" y="477" type="line"/>
      <point x="580" y="477" type="line"/>
      <point x="398" y="0" type="line"/>
    </contour>
  </outline>
</glyph>
<glyph name="x" format="2">
  <advance width="614"/>
  <unicode hex="0078"/>
  <outline>
    <contour>
      <point x="203" y="0" type="line"/>
      <point x="35" y="0" type="line"/>
      <point x="217" y="243" type="line"/>
      <point x="46" y="477" type="line"/>
      <point x="220" y="477" type="line"/>
      <point x="309" y="336" type="line"/>
      <point x="397" y="477" type="line"/>
      <point x="565" y="477" type="line"/>
      <point x="395" y="245" type="line"/>
      <point x="580" y="0" type="line"/>
      <point x="407" y="0" type="line"/>
      <point x="305" y="161" type="line"/>
    </contour>
  </outline>
</glyph>
<glyph name="y" format="2">
  <advance width="614"/>
  <unicode hex="0079"/>
  <outline>
    <contour>
      <point x="581" y="477" type="line"/>
      <point x="357" y="-91" type="line"/>
      <point x="326" y="-170"/>
      <point x="253" y="-226"/>
      <point x="172" y="-230" type="qcurve"/>
      <point x="35" y="-236" type="line"/>
      <point x="32" y="-113" type="line"/>
      <point x="123" y="-108" type="line"/>
      <point x="172" y="-107"/>
      <point x="209" y="-87"/>
      <point x="222" y="-56" type="qcurve"/>
      <point x="235" y="-23" type="line"/>
      <point x="34" y="477" type="line"/>
      <point x="193" y="477" type="line"/>
      <point x="312" y="150" type="line"/>
      <point x="428" y="477" type="line"/>
    </contour>
  </outline>
</glyph>
<glyph name="asciitilde" format="2">
  <advance width="614"/>
  <unicode hex="007E"/>
  <outline>
    <contour>
      <point x="469" y="466" type="qcurve"/>
      <point x="580" y="436" type="line"/>
      <point x="544" y="303"/>
      <point x="478" y="202"/>
      <point x="420" y="202" type="qcurve"/>
      <point x="396" y="202"/>
      <point x="354" y="222"/>
      <point x="289" y="272" type="qcurve"/>
      <point x="238" y="311"/>
      <point x="215" y="326"/>
      <point x="207" y="326" type="qcurve"/>
      <point x="194" y="326"/>
      <point x="170" y="275"/>
      <point x="145" y="196" type="qcurve"/>
      <point x="34" y="226" type="line"/>
      <point x="70" y="359"/>
      <point x="136" y="460"/>
      <point x="194" y="460" type="qcurve"/>
      <point x="217" y="460"/>
      <point x="257" y="441"/>
      <point x="325" y="390" type="qcurve"/>
      <point x="381" y="347"/>
      <point x="400" y="336"/>
      <point x="407" y="336" type="qcurve"/>
      <point x="420" y="336"/>
      <point x="444" y="387"/>
    </contour>
  </outline>
</glyph>
<glyph name="sterling" format="2">
  <advance width="614"/>
  <unicode hex="00A3"/>
  <outline>
    <contour>
      <point x="563" y="0" type="line"/>
      <point x="57" y="0" type="line"/>
      <point x="57" y="112" type="line"/>
      <point x="119" y="164"/>
      <point x="194" y="231"/>
      <point x="212" y="250" type="qcurve"/>
      <point x="72" y="250" type="line"/>
      <point x="72" y="326" type="line"/>
      <point x="209" y="326" type="line"/>
      <point x="202" y="333"/>
      <point x="166" y="363"/>
      <point x="164" y="365" type="qcurve"/>
      <point x="118" y="404"/>
      <point x="87" y="457"/>
      <point x="87" y="494" type="qcurve"/>
      <point x="87" y="568"/>
      <point x="209" y="670"/>
      <point x="306" y="670" type="qcurve"/>
      <point x="368" y="670"/>
      <point x="480" y="631"/>
      <point x="575" y="575" type="qcurve"/>
      <point x="508" y="466" type="line"/>
      <point x="420" y="521"/>
      <point x="354" y="550"/>
      <point x="320" y="550" type="qcurve"/>
      <point x="282" y="550"/>
      <point x="234" y="514"/>
      <point x="234" y="486" type="qcurve"/>
      <point x="234" y="464"/>
      <point x="255" y="433"/>
      <point x="284" y="408" type="qcurve"/>
      <point x="306" y="389"/>
      <point x="334" y="355"/>
      <point x="341" y="339" type="qcurve"/>
      <point x="502" y="339" type="line"/>
      <point x="502" y="261" type="line"/>
      <point x="346" y="261" type="line"/>
      <point x="339" y="234"/>
      <point x="284" y="168"/>
      <point x="228" y="120" type="qcurve"/>
      <point x="563" y="120" type="line"/>
    </contour>
  </outline>
</glyph>
<glyph name="yen" format="2">
  <advance width="614"/>
  <unicode hex="00A5"/>
  <outline>
    <contour>
      <point x="240" y="124" type="line"/>
      <point x="76" y="124" type="line"/>
      <point x="76" y="200" type="line"/>
      <point x="240" y="200" type="line"/>
      <point x="240" y="283" type="line"/>
      <point x="76" y="283" type="line"/>
      <point x="76" y="359" type="line"/>
      <point x="215" y="359" type="line"/>
      <point x="15" y="655" type="line"/>
      <point x="177" y="655" type="line"/>
      <point x="309" y="440" type="line"/>
      <point x="442" y="655" type="line"/>
      <point x="599" y="655" type="line"/>
      <point x="398" y="359" type="line"/>
      <point x="538" y="359" type="line"/>
      <point x="538" y="283" type="line"/>
      <point x="374" y="283" type="line"/>
      <point x="374" y="200" type="line"/>
      <point x="538" y="200" type="line"/>
      <point x="538" y="124" type="line"/>
      <point x="374" y="124" type="line"/>
      <point x="374" y="0" type="line"/>
      <point x="240" y="0" type="line"/>
    </contour>
  </outline>
</glyph>
<glyph name="degree" format="2">
  <advance width="614"/>
  <unicode hex="00B0"/>
  <outline>
    <contour>
      <point x="307" y="284" type="qcurve"/>
      <point x="212" y="284"/>
      <point x="93" y="396"/>
      <point x="93" y="487" type="qcurve"/>
      <point x="93" y="578"/>
      <point x="213" y="692"/>
      <point x="308" y="692" type="qcurve"/>
      <point x="403" y="692"/>
      <point x="521" y="579"/>
      <point x="521" y="488" type="qcurve"/>
      <point x="521" y="397"/>
      <point x="402" y="284"/>
    </contour>
    <contour>
      <point x="407" y="487" type="qcurve"/>
      <point x="407" y="532"/>
      <point x="350" y="591"/>
      <point x="307" y="591" type="qcurve"/>
      <point x="263" y="591"/>
      <point x="208" y="534"/>
      <point x="208" y="488" type="qcurve"/>
      <point x="208" y="442"/>
      <point x="264" y="385"/>
      <point x="308" y="385" type="qcurve"/>
      <point x="351" y="385"/>
      <point x="407" y="442"/>
    </contour>
  </outline>
</glyph>
<glyph name="plusminus" format="2">
  <advance width="614"/>
  <unicode hex="00B1"/>
  <outline>
    <contour>
      <point x="241" y="366" type="line"/>
      <point x="62" y="366" type="line"/>
      <point x="62" y="482" type="line"/>
      <point x="241" y="482" type="line"/>
      <point x="241" y="655" type="line"/>
      <point x="372" y="655" type="line"/>
      <point x="372" y="482" type="line"/>
      <point x="551" y="482" type="line"/>
      <point x="551" y="366" type="line"/>
      <point x="372" y="366" type="line"/>
      <point x="372" y="193" type="line"/>
      <point x="241" y="193" type="line"/>
    </contour>
    <contour>
      <point x="551" y="115" type="line"/>
      <point x="551" y="0" type="line"/>
      <point x="62" y="0" type="line"/>
      <point x="62" y="115" type="line"/>
    </contour>
  </outline>
</glyph>
<glyph name="questiondown" format="2">
  <advance width="614"/>
  <unicode hex="00BF"/>
  <outline>
    <contour>
      <point x="240" y="637" type="qcurve"/>
      <point x="240" y="683"/>
      <point x="298" y="725"/>
      <point x="362" y="725" type="qcurve"/>
      <point x="426" y="725"/>
      <point x="482" y="684"/>
      <point x="482" y="637" type="qcurve"/>
      <point x="482" y="591"/>
      <point x="423" y="549"/>
      <point x="360" y="549" type="qcurve"/>
      <point x="296" y="549"/>
      <point x="240" y="589"/>
    </contour>
    <contour>
      <point x="306" y="433" type="qcurve"/>
      <point x="404" y="433" type="line"/>
      <point x="416" y="390"/>
      <point x="424" y="348"/>
      <point x="424" y="332" type="qcurve"/>
      <point x="424" y="310"/>
      <point x="395" y="280"/>
      <point x="359" y="263" type="qcurve"/>
      <point x="292" y="232" type="line"/>
      <point x="241" y="209"/>
      <point x="213" y="184"/>
      <point x="213" y="164" type="qcurve"/>
      <point x="213" y="135"/>
      <point x="259" y="105"/>
      <point x="304" y="105" type="qcurve"/>
      <point x="347" y="105"/>
      <point x="462" y="124"/>
      <point x="536" y="143" type="qcurve"/>
      <point x="558" y="18" type="line"/>
      <point x="472" y="0"/>
      <point x="356" y="-15"/>
      <point x="290" y="-15" type="qcurve"/>
      <point x="177" y="-15"/>
      <point x="65" y="74"/>
      <point x="65" y="164" type="qcurve"/>
      <point x="65" y="217"/>
      <point x="117" y="284"/>
      <point x="190" y="319" type="qcurve"/>
      <point x="254" y="349" type="line"/>
      <point x="279" y="361"/>
      <point x="296" y="386"/>
    </contour>
  </outline>
</glyph>
<glyph name="Aring" format="2">
  <advance width="614"/>
  <unicode hex="00C5"/>
  <outline>
    <contour>
      <point x="207" y="126" type="line"/>
      <point x="171" y="0" type="line"/>
      <point x="28" y="0" type="line"/>
      <point x="193" y="573" type="line"/>
      <point x="165" y="591"/>
      <point x="135" y="646"/>
      <point x="135" y="680" type="qcurve"/>
      <point x="135" y="743"/>
      <point x="228" y="817"/>
      <point x="307" y="817" type="qcurve"/>
      <point x="385" y="817"/>
      <point x="477" y="743"/>
      <point x="477" y="681" type="qcurve"/>
      <point x="477" y="647"/>
      <point x="448" y="592"/>
      <point x="420" y="574" type="qcurve"/>
      <point x="586" y="0" type="line"/>
      <point x="435" y="0" type="line"/>
      <point x="399" y="126" type="line"/>
    </contour>
    <contour>
      <point x="233" y="679" type="qcurve"/>
      <point x="233" y="651"/>
      <point x="270" y="622"/>
      <point x="306" y="622" type="qcurve"/>
      <point x="343" y="622"/>
      <point x="379" y="652"/>
      <point x="379" y="682" type="qcurve"/>
      <point x="379" y="711"/>
      <point x="342" y="740"/>
      <point x="306" y="740" type="qcurve"/>
      <point x="269" y="740"/>
      <point x="233" y="710"/>
    </contour>
    <contour>
      <point x="303" y="500" type="line"/>
      <point x="236" y="239" type="line"/>
      <point x="370" y="239" type="line"/>
    </contour>
  </outline>
</glyph>
<glyph name="multiply" format="2">
  <advance width="614"/>
  <unicode hex="00D7"/>
  <outline>
    <contour>
      <point x="307" y="251" type="line"/>
      <point x="134" y="72" type="line"/>
      <point x="46" y="159" type="line"/>
      <point x="225" y="332" type="line"/>
      <point x="46" y="502" type="line"/>
      <point x="136" y="591" type="line"/>
      <point x="307" y="413" type="line"/>
      <point x="480" y="591" type="line"/>
      <point x="568" y="505" type="line"/>
      <point x="389" y="332" type="line"/>
      <point x="568" y="161" type="line"/>
      <point x="478" y="73" type="line"/>
    </contour>
  </outline>
</glyph>
<glyph name="germandbls" format="2">
  <advance width="614"/>
  <unicode hex="00DF"/>
  <outline>
    <contour>
      <point x="415" y="169" type="qcurve"/>
      <point x="415" y="193"/>
      <point x="367" y="260"/>
      <point x="308" y="324" type="qcurve"/>
      <point x="308" y="387" type="line"/>
      <point x="350" y="444"/>
      <point x="388" y="517"/>
      <point x="388" y="550" type="qcurve"/>
      <point x="388" y="575"/>
      <point x="353" y="605"/>
      <point x="322" y="605" type="qcurve"/>
      <point x="273" y="605"/>
      <point x="223" y="547"/>
      <point x="223" y="491" type="qcurve"/>
      <point x="223" y="0" type="line"/>
      <point x="78" y="0" type="line"/>
      <point x="78" y="491" type="line"/>
      <point x="78" y="596"/>
      <point x="210" y="725"/>
      <point x="323" y="725" type="qcurve"/>
      <point x="423" y="725"/>
      <point x="536" y="638"/>
      <point x="536" y="562" type="qcurve"/>
      <point x="536" y="518"/>
      <point x="492" y="434"/>
      <point x="437" y="363" type="qcurve"/>
      <point x="506" y="297"/>
      <point x="565" y="205"/>
      <point x="565" y="153" type="qcurve"/>
      <point x="565" y="77"/>
      <point x="478" y="5"/>
      <point x="380" y="0" type="qcurve"/>
      <point x="322" y="-3" type="line"/>
      <point x="314" y="122" type="line"/>
      <point x="368" y="125" type="line"/>
      <point x="392" y="126"/>
      <point x="415" y="148"/>
    </contour>
  </outline>
</glyph>
<glyph name="ae" format="2">
  <advance width="614"/>
  <unicode hex="00E6"/>
  <outline>
    <contour>
      <point x="474" y="96" type="qcurve"/>
      <point x="520" y="93" type="line"/>
      <point x="515" y="-13" type="line"/>
      <point x="440" y="-11" type="line"/>
      <point x="383" y="-10"/>
      <point x="302" y="24"/>
      <point x="277" y="57" type="qcurve"/>
      <point x="254" y="57" type="line"/>
      <point x="218" y="21"/>
      <point x="154" y="-11"/>
      <point x="120" y="-11" type="qcurve"/>
      <point x="70" y="-11"/>
      <point x="11" y="65"/>
      <point x="11" y="131" type="qcurve"/>
      <point x="11" y="200"/>
      <point x="79" y="269"/>
      <point x="160" y="285" type="qcurve"/>
      <point x="234" y="299" type="line"/>
      <point x="234" y="324" type="line"/>
      <point x="234" y="357"/>
      <point x="207" y="381"/>
      <point x="170" y="381" type="qcurve"/>
      <point x="152" y="381"/>
      <point x="105" y="375"/>
      <point x="69" y="369" type="qcurve"/>
      <point x="57" y="477" type="line"/>
      <point x="94" y="483"/>
      <point x="166" y="490"/>
      <point x="195" y="490" type="qcurve"/>
      <point x="242" y="490"/>
      <point x="305" y="461"/>
      <point x="323" y="432" type="qcurve"/>
      <point x="347" y="460"/>
      <point x="406" y="490"/>
      <point x="437" y="490" type="qcurve"/>
      <point x="512" y="490"/>
      <point x="602" y="360"/>
      <point x="602" y="254" type="qcurve"/>
      <point x="602" y="238"/>
      <point x="599" y="206"/>
      <point x="596" y="192" type="qcurve"/>
      <point x="363" y="192" type="line"/>
      <point x="369" y="142"/>
      <point x="416" y="100"/>
    </contour>
    <contour>
      <point x="426" y="386" type="qcurve"/>
      <point x="402" y="386"/>
      <point x="368" y="335"/>
      <point x="362" y="289" type="qcurve"/>
      <point x="475" y="289" type="line"/>
      <point x="473" y="335"/>
      <point x="448" y="386"/>
    </contour>
    <contour>
      <point x="147" y="141" type="qcurve"/>
      <point x="147" y="120"/>
      <point x="164" y="94"/>
      <point x="178" y="94" type="qcurve"/>
      <point x="190" y="94"/>
      <point x="219" y="108"/>
      <point x="245" y="127" type="qcurve"/>
      <point x="240" y="147"/>
      <point x="235" y="191"/>
      <point x="234" y="214" type="qcurve"/>
      <point x="199" y="203" type="line"/>
      <point x="171" y="194"/>
      <point x="147" y="166"/>
    </contour>
  </outline>
</glyph>
<glyph name="ccedilla" format="2">
  <advance width="614"/>
  <unicode hex="00E7"/>
  <outline>
    <contour>
      <point x="337" y="368" type="qcurve"/>
      <point x="279" y="368"/>
      <point x="207" y="296"/>
      <point x="207" y="239" type="qcurve"/>
      <point x="207" y="179"/>
      <point x="275" y="108"/>
      <point x="329" y="108" type="qcurve"/>
      <point x="370" y="108"/>
      <point x="444" y="132"/>
      <point x="497" y="161" type="qcurve"/>
      <point x="562" y="63" type="line"/>
      <point x="498" y="23"/>
      <point x="389" y="-12"/>
      <point x="327" y="-14" type="qcurve"/>
      <point x="312" y="-62" type="line"/>
      <point x="388" y="-71"/>
      <point x="457" y="-111"/>
      <point x="457" y="-150" type="qcurve"/>
      <point x="457" y="-192"/>
      <point x="411" y="-235"/>
      <point x="357" y="-248" type="qcurve"/>
      <point x="329" y="-255"/>
      <point x="253" y="-266"/>
      <point x="203" y="-270" type="qcurve"/>
      <point x="184" y="-201" type="line"/>
      <point x="293" y="-192"/>
      <point x="366" y="-172"/>
      <point x="366" y="-152" type="qcurve"/>
      <point x="366" y="-136"/>
      <point x="309" y="-120"/>
      <point x="239" y="-117" type="qcurve"/>
      <point x="233" y="-107" type="line"/>
      <point x="265" y="-10" type="line"/>
      <point x="168" y="4"/>
      <point x="55" y="137"/>
      <point x="55" y="238" type="qcurve"/>
      <point x="55" y="344"/>
      <point x="214" y="490"/>
      <point x="330" y="490" type="qcurve"/>
      <point x="393" y="490"/>
      <point x="496" y="455"/>
      <point x="557" y="415" type="qcurve"/>
      <point x="490" y="312" type="line"/>
      <point x="445" y="342"/>
      <point x="378" y="368"/>
    </contour>
  </outline>
</glyph>
<glyph name="eth" format="2">
  <advance width="614"/>
  <unicode hex="00F0"/>
  <outline>
    <contour>
      <point x="296" y="685" type="qcurve"/>
      <point x="362" y="767" type="line"/>
      <point x="424" y="720" type="line"/>
      <point x="364" y="655" type="line"/>
      <point x="465" y="598"/>
      <point x="567" y="428"/>
      <point x="567" y="317" type="qcurve"/>
      <point x="567" y="164"/>
      <point x="416" y="-15"/>
      <point x="287" y="-15" type="qcurve"/>
      <point x="182" y="-15"/>
      <point x="47" y="111"/>
      <point x="47" y="210" type="qcurve"/>
      <point x="47" y="296"/>
      <point x="184" y="421"/>
      <point x="283" y="421" type="qcurve"/>
      <point x="326" y="421"/>
      <point x="388" y="409"/>
      <point x="418" y="395" type="qcurve"/>
      <point x="406" y="450"/>
      <point x="349" y="521"/>
      <point x="291" y="549" type="qcurve"/>
      <point x="216" y="457" type="line"/>
      <point x="158" y="503" type="line"/>
      <point x="223" y="577" type="line"/>
      <point x="205" y="584"/>
      <point x="162" y="597"/>
      <point x="130" y="605" type="qcurve"/>
      <point x="169" y="725" type="line"/>
      <point x="201" y="718"/>
      <point x="266" y="698"/>
    </contour>
    <contour>
      <point x="312" y="316" type="qcurve"/>
      <point x="258" y="316"/>
      <point x="197" y="259"/>
      <point x="197" y="211" type="qcurve"/>
      <point x="197" y="163"/>
      <point x="251" y="105"/>
      <point x="296" y="105" type="qcurve"/>
      <point x="352" y="105"/>
      <point x="417" y="200"/>
      <point x="421" y="290" type="qcurve"/>
      <point x="392" y="304"/>
      <point x="344" y="316"/>
    </contour>
  </outline>
</glyph>
<glyph name="divide" format="2">
  <advance width="614"/>
  <unicode hex="00F7"/>
  <outline>
    <contour>
      <point x="412" y="562" type="qcurve"/>
      <point x="412" y="523"/>
      <point x="360" y="484"/>
      <point x="307" y="484" type="qcurve"/>
      <point x="254" y="484"/>
      <point x="204" y="522"/>
      <point x="204" y="562" type="qcurve"/>
      <point x="204" y="600"/>
      <point x="258" y="641"/>
      <point x="308" y="641" type="qcurve"/>
      <point x="361" y="641"/>
      <point x="412" y="602"/>
    </contour>
    <contour>
      <point x="551" y="272" type="line"/>
      <point x="62" y="272" type="line"/>
      <point x="62" y="388" type="line"/>
      <point x="551" y="388" type="line"/>
    </contour>
    <contour>
      <point x="412" y="99" type="qcurve"/>
      <point x="412" y="60"/>
      <point x="360" y="22"/>
      <point x="307" y="22" type="qcurve"/>
      <point x="254" y="22"/>
      <point x="204" y="59"/>
      <point x="204" y="99" type="qcurve"/>
      <point x="204" y="137"/>
      <point x="258" y="178"/>
      <point x="308" y="178" type="qcurve"/>
      <point x="361" y="178"/>
      <point x="412" y="139"/>
    </contour>
  </outline>
</glyph>
<glyph name="Aogonek" format="2">
  <advance width="614"/>
  <unicode hex="0104"/>
  <outline>
    <contour>
      <point x="207" y="126" type="line"/>
      <point x="171" y="0" type="line"/>
      <point x="28" y="0" type="line"/>
      <point x="216" y="655" type="line"/>
      <point x="396" y="655" type="line"/>
      <point x="586" y="0" type="line"/>
      <point x="527" y="0" type="line"/>
      <point x="497" y="-42"/>
      <point x="470" y="-92"/>
      <point x="470" y="-106" type="qcurve"/>
      <point x="470" y="-122"/>
      <point x="488" y="-136"/>
      <point x="511" y="-137" type="qcurve"/>
      <point x="566" y="-141" type="line"/>
      <point x="556" y="-234" type="line"/>
      <point x="459" y="-230" type="line"/>
      <point x="412" y="-228"/>
      <point x="366" y="-192"/>
      <point x="366" y="-158" type="qcurve"/>
      <point x="366" y="-132"/>
      <point x="411" y="-57"/>
      <point x="461" y="0" type="qcurve"/>
      <point x="435" y="0" type="line"/>
      <point x="399" y="126" type="line"/>
    </contour>
    <contour>
      <point x="303" y="500" type="line"/>
      <point x="236" y="239" type="line"/>
      <point x="370" y="239" type="line"/>
    </contour>
  </outline>
</glyph>
<glyph name="dcroat" format="2">
  <advance width="614"/>
  <unicode hex="0111"/>
  <outline>
    <contour>
      <point x="242" y="-11" type="qcurve"/>
      <point x="153" y="-11"/>
      <point x="44" y="104"/>
      <point x="44" y="202" type="qcurve"/>
      <point x="44" y="300"/>
      <point x="176" y="427"/>
      <point x="279" y="427" type="qcurve"/>
      <point x="311" y="427"/>
      <point x="358" y="416"/>
      <point x="380" y="403" type="qcurve"/>
      <point x="380" y="516" type="line"/>
      <point x="252" y="516" type="line"/>
      <point x="252" y="592" type="line"/>
      <point x="380" y="592" type="line"/>
      <point x="380" y="710" type="line"/>
      <point x="525" y="710" type="line"/>
      <point x="525" y="592" type="line"/>
      <point x="602" y="592" type="line"/>
      <point x="602" y="516" type="line"/>
      <point x="525" y="516" type="line"/>
      <point x="525" y="0" type="line"/>
      <point x="399" y="0" type="line"/>
      <point x="390" y="57" type="line"/>
      <point x="358" y="22"/>
      <point x="286" y="-11"/>
    </contour>
    <contour>
      <point x="302" y="320" type="qcurve"/>
      <point x="253" y="320"/>
      <point x="194" y="262"/>
      <point x="194" y="213" type="qcurve"/>
      <point x="194" y="164"/>
      <point x="247" y="108"/>
      <point x="294" y="108" type="qcurve"/>
      <point x="315" y="108"/>
      <point x="356" y="123"/>
      <point x="380" y="139" type="qcurve"/>
      <point x="380" y="297" type="line"/>
      <point x="358" y="309"/>
      <point x="322" y="320"/>
    </contour>
  </outline>
</glyph>
<glyph name="Lslash" format="2">
  <advance width="614"/>
  <unicode hex="0141"/>
  <outline>
    <contour>
      <point x="108" y="240" type="line"/>
      <point x="31" y="186" type="line"/>
      <point x="31" y="279" type="line"/>
      <point x="108" y="333" type="line"/>
      <point x="108" y="655" type="line"/>
      <point x="253" y="655" type="line"/>
      <point x="253" y="424" type="line"/>
      <point x="431" y="550" type="line"/>
      <point x="431" y="457" type="line"/>
      <point x="253" y="331" type="line"/>
      <point x="253" y="119" type="line"/>
      <point x="553" y="119" type="line"/>
      <point x="553" y="0" type="line"/>
      <point x="108" y="0" type="line"/>
    </contour>
  </outline>
</glyph>
<glyph name="eng" format="2">
  <advance width="614"/>
  <unicode hex="014B"/>
  <outline>
    <contour>
      <point x="78" y="477" type="line"/>
      <point x="204" y="477" type="line"/>
      <point x="212" y="396" type="line"/>
      <point x="271" y="446"/>
      <point x="360" y="488"/>
      <point x="404" y="488" type="qcurve"/>
      <point x="474" y="488"/>
      <point x="541" y="409"/>
      <point x="541" y="327" type="qcurve"/>
      <point x="541" y="-14" type="line"/>
      <point x="541" y="-131"/>
      <point x="454" y="-224"/>
      <point x="333" y="-230" type="qcurve"/>
      <point x="219" y="-236" type="line"/>
      <point x="214" y="-112" type="line"/>
      <point x="322" y="-104" type="line"/>
      <point x="363" y="-101"/>
      <point x="396" y="-67"/>
      <point x="396" y="-27" type="qcurve"/>
      <point x="396" y="300" type="line"/>
      <point x="396" y="327"/>
      <point x="373" y="351"/>
      <point x="349" y="351" type="qcurve"/>
      <point x="328" y="351"/>
      <point x="268" y="317"/>
      <point x="223" y="280" type="qcurve"/>
      <point x="223" y="0" type="line"/>
      <point x="78" y="0" type="line"/>
    </contour>
  </outline>
</glyph>
<glyph name="Scedilla" format="2">
  <advance width="614"/>
  <unicode hex="015E"/>
  <outline>
    <contour>
      <point x="302" y="106" type="qcurve"/>
      <point x="356" y="106"/>
      <point x="406" y="140"/>
      <point x="406" y="176" type="qcurve"/>
      <point x="406" y="209"/>
      <point x="364" y="242"/>
      <point x="302" y="262" type="qcurve"/>
      <point x="240" y="282" type="line"/>
      <point x="155" y="309"/>
      <point x="79" y="400"/>
      <point x="79" y="476" type="qcurve"/>
      <point x="79" y="560"/>
      <point x="212" y="667"/>
      <point x="323" y="667" type="qcurve"/>
      <point x="366" y="667"/>
      <point x="453" y="656"/>
      <point x="525" y="641" type="qcurve"/>
      <point x="509" y="519" type="line"/>
      <point x="439" y="535"/>
      <point x="350" y="548"/>
      <point x="319" y="548" type="qcurve"/>
      <point x="271" y="548"/>
      <point x="223" y="518"/>
      <point x="223" y="487" type="qcurve"/>
      <point x="223" y="453"/>
      <point x="267" y="416"/>
      <point x="323" y="399" type="qcurve"/>
      <point x="389" y="379" type="line"/>
      <point x="478" y="352"/>
      <point x="551" y="266"/>
      <point x="551" y="187" type="qcurve"/>
      <point x="551" y="100"/>
      <point x="432" y="-7"/>
      <point x="326" y="-13" type="qcurve"/>
      <point x="311" y="-62" type="line"/>
      <point x="387" y="-71"/>
      <point x="456" y="-111"/>
      <point x="456" y="-150" type="qcurve"/>
      <point x="456" y="-192"/>
      <point x="410" y="-235"/>
      <point x="356" y="-248" type="qcurve"/>
      <point x="328" y="-255"/>
      <point x="252" y="-266"/>
      <point x="202" y="-270" type="qcurve"/>
      <point x="183" y="-201" type="line"/>
      <point x="292" y="-192"/>
      <point x="365" y="-172"/>
      <point x="365" y="-152" type="qcurve"/>
      <point x="365" y="-136"/>
      <point x="308" y="-120"/>
      <point x="238" y="-117" type="qcurve"/>
      <point x="232" y="-107" type="line"/>
      <point x="263" y="-13" type="line"/>
      <point x="219" y="-10"/>
      <point x="119" y="11"/>
      <point x="58" y="30" type="qcurve"/>
      <point x="84" y="151" type="line"/>
      <point x="162" y="127"/>
      <point x="264" y="106"/>
    </contour>
  </outline>
</glyph>
<glyph name="scedilla" format="2">
  <advance width="614"/>
  <unicode hex="015F"/>
  <outline>
    <contour>
      <point x="540" y="143" type="qcurve"/>
      <point x="540" y="77"/>
      <point x="423" y="-7"/>
      <point x="322" y="-13" type="qcurve"/>
      <point x="307" y="-62" type="line"/>
      <point x="383" y="-71"/>
      <point x="452" y="-111"/>
      <point x="452" y="-150" type="qcurve"/>
      <point x="452" y="-192"/>
      <point x="406" y="-235"/>
      <point x="352" y="-248" type="qcurve"/>
      <point x="324" y="-255"/>
      <point x="248" y="-266"/>
      <point x="198" y="-270" type="qcurve"/>
      <point x="179" y="-201" type="line"/>
      <point x="288" y="-192"/>
      <point x="361" y="-172"/>
      <point x="361" y="-152" type="qcurve"/>
      <point x="361" y="-136"/>
      <point x="304" y="-120"/>
      <point x="234" y="-117" type="qcurve"/>
      <point x="228" y="-107" type="line"/>
      <point x="259" y="-14" type="line"/>
      <point x="213" y="-13"/>
      <point x="129" y="-4"/>
      <point x="77" y="4" type="qcurve"/>
      <point x="90" y="120" type="line"/>
      <point x="150" y="110"/>
      <point x="262" y="99"/>
      <point x="297" y="99" type="qcurve"/>
      <point x="346" y="99"/>
      <point x="393" y="117"/>
      <point x="393" y="137" type="qcurve"/>
      <point x="393" y="154"/>
      <point x="368" y="172"/>
      <point x="335" y="179" type="qcurve"/>
      <point x="229" y="199" type="line"/>
      <point x="150" y="214"/>
      <point x="83" y="276"/>
      <point x="83" y="338" type="qcurve"/>
      <point x="83" y="413"/>
      <point x="205" y="491"/>
      <point x="324" y="491" type="qcurve"/>
      <point x="361" y="491"/>
      <point x="462" y="482"/>
      <point x="511" y="475" type="qcurve"/>
      <point x="499" y="359" type="line"/>
      <point x="443" y="368"/>
      <point x="349" y="378"/>
      <point x="319" y="378" type="qcurve"/>
      <point x="272" y="378"/>
      <point x="231" y="364"/>
      <point x="231" y="346" type="qcurve"/>
      <point x="231" y="331"/>
      <point x="251" y="316"/>
      <point x="284" y="309" type="qcurve"/>
      <point x="387" y="289" type="line"/>
      <point x="470" y="273"/>
      <point x="540" y="208"/>
    </contour>
  </outline>
</glyph>
<glyph name="Tcedilla" format="2">
  <advance width="614"/>
  <unicode hex="0162"/>
  <outline>
    <contour>
      <point x="235" y="535" type="line"/>
      <point x="39" y="535" type="line"/>
      <point x="39" y="655" type="line"/>
      <point x="575" y="655" type="line"/>
      <point x="575" y="535" type="line"/>
      <point x="379" y="535" type="line"/>
      <point x="379" y="0" type="line"/>
      <point x="333" y="0" type="line"/>
      <point x="316" y="-56" type="line"/>
      <point x="392" y="-65"/>
      <point x="461" y="-105"/>
      <point x="461" y="-144" type="qcurve"/>
      <point x="461" y="-186"/>
      <point x="415" y="-229"/>
      <point x="361" y="-242" type="qcurve"/>
      <point x="333" y="-249"/>
      <point x="257" y="-260"/>
      <point x="207" y="-264" type="qcurve"/>
      <point x="188" y="-195" type="line"/>
      <point x="297" y="-186"/>
      <point x="370" y="-166"/>
      <point x="370" y="-146" type="qcurve"/>
      <point x="370" y="-130"/>
      <point x="313" y="-114"/>
      <point x="243" y="-111" type="qcurve"/>
      <point x="237" y="-101" type="line"/>
      <point x="271" y="0" type="line"/>
      <point x="235" y="0" type="line"/>
    </contour>
  </outline>
</glyph>
<glyph name="tcedilla" format="2">
  <advance width="614"/>
  <unicode hex="0163"/>
  <outline>
    <contour>
      <point x="197" y="198" type="qcurve"/>
      <point x="197" y="355" type="line"/>
      <point x="50" y="355" type="line"/>
      <point x="50" y="477" type="line"/>
      <point x="199" y="477" type="line"/>
      <point x="199" y="640" type="line"/>
      <point x="338" y="640" type="line"/>
      <point x="338" y="477" type="line"/>
      <point x="525" y="477" type="line"/>
      <point x="525" y="355" type="line"/>
      <point x="341" y="355" type="line"/>
      <point x="341" y="213" type="line"/>
      <point x="341" y="164"/>
      <point x="373" y="129"/>
      <point x="420" y="126" type="qcurve"/>
      <point x="549" y="118" type="line"/>
      <point x="538" y="-6" type="line"/>
      <point x="410" y="-1" type="line"/>
      <point x="385" y="0"/>
      <point x="366" y="1"/>
      <point x="349" y="2" type="qcurve"/>
      <point x="331" y="-57" type="line"/>
      <point x="407" y="-66"/>
      <point x="476" y="-106"/>
      <point x="476" y="-145" type="qcurve"/>
      <point x="476" y="-187"/>
      <point x="430" y="-230"/>
      <point x="376" y="-243" type="qcurve"/>
      <point x="348" y="-250"/>
      <point x="272" y="-261"/>
      <point x="222" y="-265" type="qcurve"/>
      <point x="203" y="-196" type="line"/>
      <point x="312" y="-187"/>
      <point x="385" y="-167"/>
      <point x="385" y="-147" type="qcurve"/>
      <point x="385" y="-131"/>
      <point x="328" y="-115"/>
      <point x="258" y="-112" type="qcurve"/>
      <point x="252" y="-102" type="line"/>
      <point x="290" y="13" type="line"/>
      <point x="238" y="28"/>
      <point x="197" y="108"/>
    </contour>
  </outline>
</glyph>
<glyph name="Tbar" format="2">
  <advance width="614"/>
  <unicode hex="0166"/>
  <outline>
    <contour>
      <point x="235" y="261" type="line"/>
      <point x="102" y="261" type="line"/>
      <point x="102" y="337" type="line"/>
      <point x="235" y="337" type="line"/>
      <point x="235" y="535" type="line"/>
      <point x="39" y="535" type="line"/>
      <point x="39" y="655" type="line"/>
      <point x="575" y="655" type="line"/>
      <point x="575" y="535" type="line"/>
      <point x="379" y="535" type="line"/>
      <point x="379" y="337" type="line"/>
      <point x="512" y="337" type="line"/>
      <point x="512" y="261" type="line"/>
      <point x="379" y="261" type="line"/>
      <point x="379" y="0" type="line"/>
      <point x="235" y="0" type="line"/>
    </contour>
  </outline>
</glyph>
<glyph name="tbar" format="2">
  <advance width="614"/>
  <unicode hex="0167"/>
  <outline>
    <contour>
      <point x="197" y="206" type="line"/>
      <point x="105" y="206" type="line"/>
      <point x="105" y="282" type="line"/>
      <point x="197" y="282" type="line"/>
      <point x="197" y="365" type="line"/>
      <point x="50" y="365" type="line"/>
      <point x="50" y="477" type="line"/>
      <point x="199" y="477" type="line"/>
      <point x="199" y="640" type="line"/>
      <point x="338" y="640" type="line"/>
      <point x="338" y="477" type="line"/>
      <point x="525" y="477" type="line"/>
      <point x="525" y="365" type="line"/>
      <point x="341" y="365" type="line"/>
      <point x="341" y="282" type="line"/>
      <point x="455" y="282" type="line"/>
      <point x="455" y="206" type="line"/>
      <point x="341" y="206" type="line"/>
      <point x="341" y="203" type="line"/>
      <point x="341" y="154"/>
      <point x="373" y="119"/>
      <point x="419" y="116" type="qcurve"/>
      <point x="548" y="108" type="line"/>
      <point x="538" y="-6" type="line"/>
      <point x="385" y="0" type="line"/>
      <point x="273" y="5"/>
      <point x="197" y="82"/>
      <point x="197" y="198" type="qcurve"/>
    </contour>
  </outline>
</glyph>
<glyph name="Uogonek" format="2">
  <advance width="614"/>
  <unicode hex="0172"/>
  <outline>
    <contour>
      <point x="189" y="-163" type="qcurve"/>
      <point x="189" y="-138"/>
      <point x="231" y="-67"/>
      <point x="276" y="-14" type="qcurve"/>
      <point x="170" y="-8"/>
      <point x="67" y="111"/>
      <point x="67" y="228" type="qcurve"/>
      <point x="67" y="655" type="line"/>
      <point x="212" y="655" type="line"/>
      <point x="212" y="226" type="line"/>
      <point x="212" y="171"/>
      <point x="259" y="118"/>
      <point x="307" y="118" type="qcurve"/>
      <point x="356" y="118"/>
      <point x="403" y="171"/>
      <point x="403" y="226" type="qcurve"/>
      <point x="403" y="655" type="line"/>
      <point x="547" y="655" type="line"/>
      <point x="547" y="228" type="line"/>
      <point x="547" y="114"/>
      <point x="448" y="-4"/>
      <point x="344" y="-13" type="qcurve"/>
      <point x="318" y="-51"/>
      <point x="293" y="-98"/>
      <point x="293" y="-111" type="qcurve"/>
      <point x="293" y="-127"/>
      <point x="311" y="-141"/>
      <point x="334" y="-142" type="qcurve"/>
      <point x="389" y="-146" type="line"/>
      <point x="379" y="-239" type="line"/>
      <point x="282" y="-235" type="line"/>
      <point x="235" y="-233"/>
      <point x="189" y="-197"/>
    </contour>
  </outline>
</glyph>
<glyph name="uogonek" format="2">
  <advance width="614"/>
  <unicode hex="0173"/>
  <outline>
    <contour>
      <point x="351" y="-158" type="qcurve"/>
      <point x="351" y="-132"/>
      <point x="396" y="-57"/>
      <point x="446" y="0" type="qcurve"/>
      <point x="409" y="0" type="line"/>
      <point x="402" y="81" type="line"/>
      <point x="344" y="32"/>
      <point x="255" y="-11"/>
      <point x="210" y="-11" type="qcurve"/>
      <point x="140" y="-11"/>
      <point x="73" y="68"/>
      <point x="73" y="150" type="qcurve"/>
      <point x="73" y="477" type="line"/>
      <point x="218" y="477" type="line"/>
      <point x="218" y="177" type="line"/>
      <point x="218" y="150"/>
      <point x="241" y="126"/>
      <point x="265" y="126" type="qcurve"/>
      <point x="286" y="126"/>
      <point x="346" y="160"/>
      <point x="391" y="197" type="qcurve"/>
      <point x="391" y="477" type="line"/>
      <point x="536" y="477" type="line"/>
      <point x="536" y="0" type="line"/>
      <point x="512" y="0" type="line"/>
      <point x="482" y="-42"/>
      <point x="455" y="-92"/>
      <point x="455" y="-106" type="qcurve"/>
      <point x="455" y="-122"/>
      <point x="473" y="-136"/>
      <point x="496" y="-137" type="qcurve"/>
      <point x="551" y="-141" type="line"/>
      <point x="541" y="-234" type="line"/>
      <point x="444" y="-230" type="line"/>
      <point x="397" y="-228"/>
      <point x="351" y="-192"/>
    </contour>
  </outline>
</glyph>
<glyph name="Oogonek" format="2">
  <advance width="614"/>
  <unicode hex="01EA"/>
  <outline>
    <contour>
      <point x="199" y="-163" type="qcurve"/>
      <point x="199" y="-138"/>
      <point x="241" y="-67"/>
      <point x="286" y="-14" type="qcurve"/>
      <point x="170" y="-8"/>
      <point x="50" y="164"/>
      <point x="50" y="326" type="qcurve"/>
      <point x="50" y="494"/>
      <point x="183" y="670"/>
      <point x="309" y="670" type="qcurve"/>
      <point x="434" y="670"/>
      <point x="564" y="496"/>
      <point x="564" y="328" type="qcurve"/>
      <point x="564" y="178"/>
      <point x="458" y="6"/>
      <point x="356" y="-11" type="qcurve"/>
      <point x="329" y="-50"/>
      <point x="303" y="-98"/>
      <point x="303" y="-111" type="qcurve"/>
      <point x="303" y="-127"/>
      <point x="321" y="-141"/>
      <point x="344" y="-142" type="qcurve"/>
      <point x="399" y="-146" type="line"/>
      <point x="389" y="-239" type="line"/>
      <point x="292" y="-235" type="line"/>
      <point x="245" y="-233"/>
      <point x="199" y="-197"/>
    </contour>
    <contour>
      <point x="307" y="550" type="qcurve"/>
      <point x="248" y="550"/>
      <point x="197" y="444"/>
      <point x="197" y="328" type="qcurve"/>
      <point x="197" y="212"/>
      <point x="249" y="105"/>
      <point x="307" y="105" type="qcurve"/>
      <point x="366" y="105"/>
      <point x="417" y="210"/>
      <point x="417" y="326" type="qcurve"/>
      <point x="417" y="443"/>
      <point x="365" y="550"/>
    </contour>
  </outline>
</glyph>
<glyph name="dotlessj" format="2">
  <advance width="614"/>
  <unicode hex="0237"/>
  <outline>
    <contour>
      <point x="468" y="477" type="line"/>
      <point x="468" y="6" type="line"/>
      <point x="468" y="-122"/>
      <point x="372" y="-224"/>
      <point x="240" y="-230" type="qcurve"/>
      <point x="106" y="-236" type="line"/>
      <point x="101" y="-112" type="line"/>
      <point x="229" y="-104" type="line"/>
      <point x="282" y="-100"/>
      <point x="323" y="-58"/>
      <point x="323" y="-7" type="qcurve"/>
      <point x="323" y="355" type="line"/>
      <point x="106" y="355" type="line"/>
      <point x="106" y="477" type="line"/>
    </contour>
  </outline>
</glyph>
<glyph name="ringhalfleft" format="2">
  <advance width="614"/>
  <unicode hex="02BF"/>
  <outline>
    <contour>
      <point x="154" y="525" type="qcurve"/>
      <point x="154" y="619"/>
      <point x="292" y="725"/>
      <point x="418" y="725" type="qcurve"/>
      <point x="418" y="625" type="line"/>
      <point x="342" y="625"/>
      <point x="270" y="577"/>
      <point x="270" y="525" type="qcurve"/>
      <point x="270" y="468"/>
      <point x="342" y="415"/>
      <point x="418" y="415" type="qcurve"/>
      <point x="418" y="315" type="line"/>
      <point x="292" y="315"/>
      <point x="154" y="426"/>
    </contour>
  </outline>
</glyph>
<glyph name="verticallinemod" format="2">
  <advance width="614"/>
  <unicode hex="02C8"/>
  <outline>
    <contour>
      <point x="371" y="715" type="line"/>
      <point x="371" y="323" type="line"/>
      <point x="243" y="323" type="line"/>
      <point x="243" y="715" type="line"/>
    </contour>
  </outline>
</glyph>
<glyph name="gravecmb" format="2">
  <unicode hex="0300"/>
  <outline>
    <contour>
      <point x="-130" y="761" type="line"/>
      <point x="103" y="631" type="line"/>
      <point x="61" y="553" type="line"/>
      <point x="-179" y="668" type="line"/>
    </contour>
  </outline>
</glyph>
<glyph name="dotaccentcmb" format="2">
  <unicode hex="0307"/>
  <outline>
    <contour>
      <point x="80" y="649" type="qcurve"/>
      <point x="80" y="613"/>
      <point x="38" y="573"/>
      <point x="0" y="573" type="qcurve"/>
      <point x="-37" y="573"/>
      <point x="-78" y="613"/>
      <point x="-78" y="649" type="qcurve"/>
      <point x="-78" y="684"/>
      <point x="-35" y="726"/>
      <point x="1" y="726" type="qcurve"/>
      <point x="39" y="726"/>
      <point x="80" y="686"/>
    </contour>
  </outline>
</glyph>
<glyph name="hookcmb" format="2">
  <unicode hex="0309"/>
  <outline>
    <contour>
      <point x="124" y="682" type="qcurve"/>
      <point x="124" y="637"/>
      <point x="13" y="571"/>
      <point x="-96" y="553" type="qcurve"/>
      <point x="-126" y="610" type="line"/>
      <point x="-126" y="612" type="line"/>
      <point x="-57" y="628"/>
      <point x="0" y="651"/>
      <point x="0" y="666" type="qcurve"/>
      <point x="0" y="683"/>
      <point x="-68" y="706"/>
      <point x="-142" y="716" type="qcurve"/>
      <point x="-142" y="718" type="line"/>
      <point x="-90" y="787" type="line"/>
      <point x="22" y="775"/>
      <point x="124" y="726"/>
    </contour>
  </outline>
</glyph>
<glyph name="caroncmb" format="2">
  <unicode hex="030C"/>
  <outline>
    <contour>
      <point x="141" y="758" type="line"/>
      <point x="188" y="702" type="line"/>
      <point x="31" y="553" type="line"/>
      <point x="-31" y="553" type="line"/>
      <point x="-188" y="702" type="line"/>
      <point x="-141" y="758" type="line"/>
      <point x="0" y="655" type="line"/>
    </contour>
  </outline>
</glyph>
<glyph name="commaturnedabovecmb" format="2">
  <unicode hex="0312"/>
  <outline>
    <contour>
      <point x="-124" y="658" type="qcurve"/>
      <point x="-124" y="703"/>
      <point x="-13" y="769"/>
      <point x="96" y="787" type="qcurve"/>
      <point x="126" y="730" type="line"/>
      <point x="126" y="728" type="line"/>
      <point x="57" y="712"/>
      <point x="0" y="689"/>
      <point x="0" y="674" type="qcurve"/>
      <point x="0" y="657"/>
      <point x="68" y="634"/>
      <point x="142" y="624" type="qcurve"/>
      <point x="142" y="622" type="line"/>
      <point x="90" y="553" type="line"/>
      <point x="-22" y="565"/>
      <point x="-124" y="614"/>
    </contour>
  </outline>
</glyph>
<glyph name="dotbelowcmb" format="2">
  <unicode hex="0323"/>
  <outline>
    <contour>
      <point x="80" y="-173" type="qcurve"/>
      <point x="80" y="-209"/>
      <point x="38" y="-249"/>
      <point x="0" y="-249" type="qcurve"/>
      <point x="-37" y="-249"/>
      <point x="-78" y="-209"/>
      <point x="-78" y="-173" type="qcurve"/>
      <point x="-78" y="-138"/>
      <point x="-35" y="-96"/>
      <point x="1" y="-96" type="qcurve"/>
      <point x="39" y="-96"/>
      <point x="80" y="-136"/>
    </contour>
  </outline>
</glyph>
<glyph name="dieresisbelowcmb" format="2">
  <unicode hex="0324"/>
  <outline>
    <contour>
      <point x="-41" y="-168" type="qcurve"/>
      <point x="-41" y="-202"/>
      <point x="-81" y="-239"/>
      <point x="-116" y="-239" type="qcurve"/>
      <point x="-151" y="-239"/>
      <point x="-189" y="-202"/>
      <point x="-189" y="-168" type="qcurve"/>
      <point x="-189" y="-136"/>
      <point x="-149" y="-96"/>
      <point x="-115" y="-96" type="qcurve"/>
      <point x="-79" y="-96"/>
      <point x="-41" y="-133"/>
    </contour>
    <contour>
      <point x="189" y="-168" type="qcurve"/>
      <point x="189" y="-202"/>
      <point x="149" y="-239"/>
      <point x="114" y="-239" type="qcurve"/>
      <point x="79" y="-239"/>
      <point x="41" y="-202"/>
      <point x="41" y="-168" type="qcurve"/>
      <point x="41" y="-136"/>
      <point x="81" y="-96"/>
      <point x="115" y="-96" type="qcurve"/>
      <point x="151" y="-96"/>
      <point x="189" y="-133"/>
    </contour>
  </outline>
</glyph>
<glyph name="uni0326" format="2">
  <unicode hex="0326"/>
  <outline>
    <contour>
      <point x="124" y="-181" type="qcurve"/>
      <point x="124" y="-226"/>
      <point x="13" y="-292"/>
      <point x="-96" y="-310" type="qcurve"/>
      <point x="-126" y="-253" type="line"/>
      <point x="-126" y="-251" type="line"/>
      <point x="-57" y="-235"/>
      <point x="0" y="-212"/>
      <point x="0" y="-197" type="qcurve"/>
      <point x="0" y="-180"/>
      <point x="-68" y="-157"/>
      <point x="-142" y="-147" type="qcurve"/>
      <point x="-142" y="-145" type="line"/>
      <point x="-90" y="-76" type="line"/>
      <point x="22" y="-88"/>
      <point x="124" y="-137"/>
    </contour>
  </outline>
</glyph>
<glyph name="ogonekcmb" format="2">
  <unicode hex="0328"/>
  <outline>
    <contour>
      <point x="-121" y="-158" type="qcurve"/>
      <point x="-121" y="-131"/>
      <point x="-71" y="-51"/>
      <point x="-15" y="13" type="qcurve"/>
      <point x="45" y="7" type="line"/>
      <point x="13" y="-38"/>
      <point x="-17" y="-92"/>
      <point x="-17" y="-106" type="qcurve"/>
      <point x="-17" y="-122"/>
      <point x="1" y="-136"/>
      <point x="24" y="-137" type="qcurve"/>
      <point x="79" y="-141" type="line"/>
      <point x="69" y="-234" type="line"/>
      <point x="-28" y="-230" type="line"/>
      <point x="-75" y="-228"/>
      <point x="-121" y="-192"/>
    </contour>
  </outline>
</glyph>
<glyph name="brevebelowcmb" format="2">
  <unicode hex="032E"/>
  <outline>
    <contour>
      <point x="0" y="-183" type="qcurve"/>
      <point x="39" y="-183"/>
      <point x="96" y="-130"/>
      <point x="114" y="-76" type="qcurve"/>
      <point x="198" y="-106" type="line"/>
      <point x="176" y="-190"/>
      <point x="73" y="-278"/>
      <point x="0" y="-278" type="qcurve"/>
      <point x="-73" y="-278"/>
      <point x="-176" y="-190"/>
      <point x="-198" y="-106" type="qcurve"/>
      <point x="-114" y="-76" type="line"/>
      <point x="-95" y="-130"/>
      <point x="-39" y="-183"/>
    </contour>
  </outline>
</glyph>
<glyph name="Hcedilla" format="2">
  <advance width="614"/>
  <unicode hex="1E28"/>
  <outline>
    <contour>
      <point x="75" y="0" type="line"/>
      <point x="75" y="655" type="line"/>
      <point x="219" y="655" type="line"/>
      <point x="219" y="390" type="line"/>
      <point x="395" y="390" type="line"/>
      <point x="395" y="655" type="line"/>
      <point x="539" y="655" type="line"/>
      <point x="539" y="0" type="line"/>
      <point x="395" y="0" type="line"/>
      <point x="395" y="270" type="line"/>
      <point x="219" y="270" type="line"/>
      <point x="219" y="0" type="line"/>
      <point x="174" y="0" type="line"/>
      <point x="157" y="-57" type="line"/>
      <point x="233" y="-66"/>
      <point x="302" y="-106"/>
      <point x="302" y="-145" type="qcurve"/>
      <point x="302" y="-187"/>
      <point x="256" y="-230"/>
      <point x="202" y="-243" type="qcurve"/>
      <point x="174" y="-250"/>
      <point x="98" y="-261"/>
      <point x="48" y="-265" type="qcurve"/>
      <point x="29" y="-196" type="line"/>
      <point x="138" y="-187"/>
      <point x="211" y="-167"/>
      <point x="211" y="-147" type="qcurve"/>
      <point x="211" y="-131"/>
      <point x="154" y="-115"/>
      <point x="84" y="-112" type="qcurve"/>
      <point x="78" y="-102" type="line"/>
      <point x="112" y="0" type="line"/>
    </contour>
  </outline>
</glyph>
<glyph name="hcedilla" format="2">
  <advance width="614"/>
  <unicode hex="1E29"/>
  <outline>
    <contour>
      <point x="78" y="710" type="line"/>
      <point x="223" y="710" type="line"/>
      <point x="223" y="405" type="line"/>
      <point x="277" y="449"/>
      <point x="361" y="488"/>
      <point x="404" y="488" type="qcurve"/>
      <point x="474" y="488"/>
      <point x="541" y="409"/>
      <point x="541" y="327" type="qcurve"/>
      <point x="541" y="0" type="line"/>
      <point x="396" y="0" type="line"/>
      <point x="396" y="300" type="line"/>
      <point x="396" y="327"/>
      <point x="373" y="351"/>
      <point x="349" y="351" type="qcurve"/>
      <point x="328" y="351"/>
      <point x="268" y="317"/>
      <point x="223" y="280" type="qcurve"/>
      <point x="223" y="0" type="line"/>
      <point x="177" y="0" type="line"/>
      <point x="160" y="-57" type="line"/>
      <point x="236" y="-66"/>
      <point x="305" y="-106"/>
      <point x="305" y="-145" type="qcurve"/>
      <point x="305" y="-187"/>
      <point x="259" y="-230"/>
      <point x="205" y="-243" type="qcurve"/>
      <point x="177" y="-250"/>
      <point x="101" y="-261"/>
      <point x="51" y="-265" type="qcurve"/>
      <point x="32" y="-196" type="line"/>
      <point x="141" y="-187"/>
      <point x="214" y="-167"/>
      <point x="214" y="-147" type="qcurve"/>
      <point x="214" y="-131"/>
      <point x="157" y="-115"/>
      <point x="87" y="-112" type="qcurve"/>
      <point x="81" y="-102" type="line"/>
      <point x="115" y="0" type="line"/>
      <point x="78" y="0" type="line"/>
    </contour>
  </outline>
</glyph>
<glyph name="uni1E9E" format="2">
  <advance width="614"/>
  <unicode hex="1E9E"/>
  <outline>
    <contour>
      <point x="457" y="151" type="qcurve"/>
      <point x="457" y="179"/>
      <point x="402" y="237"/>
      <point x="326" y="296" type="qcurve"/>
      <point x="326" y="336" type="line"/>
      <point x="413" y="527" type="line"/>
      <point x="387" y="539"/>
      <point x="343" y="550"/>
      <point x="318" y="550" type="qcurve"/>
      <point x="264" y="550"/>
      <point x="211" y="492"/>
      <point x="211" y="433" type="qcurve"/>
      <point x="211" y="0" type="line"/>
      <point x="67" y="0" type="line"/>
      <point x="67" y="422" type="line"/>
      <point x="67" y="540"/>
      <point x="194" y="670"/>
      <point x="307" y="670" type="qcurve"/>
      <point x="371" y="670"/>
      <point x="490" y="628"/>
      <point x="559" y="583" type="qcurve"/>
      <point x="559" y="556" type="line"/>
      <point x="461" y="341" type="line"/>
      <point x="535" y="286"/>
      <point x="591" y="205"/>
      <point x="591" y="148" type="qcurve"/>
      <point x="591" y="79"/>
      <point x="496" y="-6"/>
      <point x="419" y="-6" type="qcurve"/>
      <point x="390" y="-6"/>
      <point x="340" y="-2"/>
      <point x="315" y="3" type="qcurve"/>
      <point x="323" y="115" type="line"/>
      <point x="344" y="111"/>
      <point x="378" y="108"/>
      <point x="399" y="108" type="qcurve"/>
      <point x="428" y="108"/>
      <point x="457" y="130"/>
    </contour>
  </outline>
</glyph>
<glyph name="endash" format="2">
  <advance width="614"/>
  <unicode hex="2013"/>
  <outline>
    <contour>
      <point x="80" y="258" type="line"/>
      <point x="80" y="402" type="line"/>
      <point x="534" y="402" type="line"/>
      <point x="534" y="258" type="line"/>
    </contour>
  </outline>
</glyph>
<glyph name="quotedblright" format="2">
  <advance width="614"/>
  <unicode hex="201D"/>
  <outline>
    <contour>
      <point x="387" y="379" type="qcurve"/>
      <point x="279" y="379" type="line"/>
      <point x="279" y="381" type="line"/>
      <point x="348" y="486"/>
      <point x="403" y="614"/>
      <point x="421" y="710" type="qcurve"/>
      <point x="595" y="710" type="line"/>
      <point x="562" y="592"/>
      <point x="467" y="442"/>
    </contour>
    <contour>
      <point x="124" y="379" type="qcurve"/>
      <point x="15" y="379" type="line"/>
      <point x="15" y="381" type="line"/>
      <point x="84" y="486"/>
      <point x="139" y="614"/>
      <point x="157" y="710" type="qcurve"/>
      <point x="331" y="710" type="line"/>
      <point x="298" y="591"/>
      <point x="204" y="442"/>
    </contour>
  </outline>
</glyph>
<glyph name="dagger" format="2">
  <advance width="614"/>
  <unicode hex="2020"/>
  <outline>
    <contour>
      <point x="539" y="533" type="qcurve"/>
      <point x="539" y="419" type="line"/>
      <point x="519" y="419"/>
      <point x="472" y="427"/>
      <point x="424" y="440" type="qcurve"/>
      <point x="386" y="450"/>
      <point x="348" y="457"/>
      <point x="332" y="459" type="qcurve"/>
      <point x="333" y="420"/>
      <point x="340" y="330"/>
      <point x="350" y="239" type="qcurve"/>
      <point x="362" y="140"/>
      <point x="369" y="42"/>
      <point x="369" y="0" type="qcurve"/>
      <point x="245" y="0" type="line"/>
      <point x="245" y="42"/>
      <point x="252" y="140"/>
      <point x="265" y="239" type="qcurve"/>
      <point x="276" y="330"/>
      <point x="283" y="420"/>
      <point x="284" y="459" type="qcurve"/>
      <point x="267" y="457"/>
      <point x="227" y="449"/>
      <point x="187" y="439" type="qcurve"/>
      <point x="139" y="427"/>
      <point x="93" y="419"/>
      <point x="75" y="419" type="qcurve"/>
      <point x="75" y="533" type="line"/>
      <point x="94" y="533"/>
      <point x="139" y="526"/>
      <point x="187" y="514" type="qcurve"/>
      <point x="226" y="505"/>
      <point x="266" y="497"/>
      <point x="283" y="496" type="qcurve"/>
      <point x="282" y="513"/>
      <point x="274" y="553"/>
      <point x="264" y="592" type="qcurve"/>
      <point x="252" y="641"/>
      <point x="245" y="690"/>
      <point x="245" y="710" type="qcurve"/>
      <point x="369" y="710" type="line"/>
      <point x="369" y="690"/>
      <point x="362" y="643"/>
      <point x="351" y="595" type="qcurve"/>
      <point x="341" y="554"/>
      <point x="334" y="513"/>
      <point x="333" y="496" type="qcurve"/>
      <point x="349" y="498"/>
      <point x="385" y="505"/>
      <point x="422" y="514" type="qcurve"/>
      <point x="470" y="526"/>
      <point x="519" y="533"/>
    </contour>
  </outline>
</glyph>
<glyph name="bullet" format="2">
  <advance width="614"/>
  <unicode hex="2022"/>
  <outline>
    <contour>
      <point x="144" y="330" type="qcurve"/>
      <point x="144" y="403"/>
      <point x="231" y="489"/>
      <point x="308" y="489" type="qcurve"/>
      <point x="386" y="489"/>
      <point x="470" y="407"/>
      <point x="470" y="330" type="qcurve"/>
      <point x="470" y="257"/>
      <point x="384" y="172"/>
      <point x="308" y="172" type="qcurve"/>
      <point x="229" y="172"/>
      <point x="144" y="253"/>
    </contour>
  </outline>
</glyph>
<glyph name="guilsinglleft" format="2">
  <advance width="614"/>
  <unicode hex="2039"/>
  <outline>
    <contour>
      <point x="460" y="124" type="line"/>
      <point x="460" y="-15" type="line"/>
      <point x="136" y="181" type="line"/>
      <point x="136" y="297" type="line"/>
      <point x="460" y="492" type="line"/>
      <point x="460" y="355" type="line"/>
      <point x="318" y="241" type="line"/>
    </contour>
  </outline>
</glyph>
<glyph name="naira" format="2">
  <advance width="614"/>
  <unicode hex="20A6"/>
  <outline>
    <contour>
      <point x="208" y="191" type="line"/>
      <point x="214" y="0" type="line"/>
      <point x="98" y="0" type="line"/>
      <point x="98" y="191" type="line"/>
      <point x="22" y="191" type="line"/>
      <point x="22" y="267" type="line"/>
      <point x="98" y="267" type="line"/>
      <point x="98" y="394" type="line"/>
      <point x="22" y="394" type="line"/>
      <point x="22" y="470" type="line"/>
      <point x="98" y="470" type="line"/>
      <point x="98" y="655" type="line"/>
      <point x="275" y="655" type="line"/>
      <point x="315" y="470" type="line"/>
      <point x="406" y="470" type="line"/>
      <point x="400" y="655" type="line"/>
      <point x="515" y="655" type="line"/>
      <point x="515" y="470" type="line"/>
      <point x="592" y="470" type="line"/>
      <point x="592" y="394" type="line"/>
      <point x="515" y="394" type="line"/>
      <point x="515" y="267" type="line"/>
      <point x="592" y="267" type="line"/>
      <point x="592" y="191" type="line"/>
      <point x="515" y="191" type="line"/>
      <point x="515" y="0" type="line"/>
      <point x="339" y="0" type="line"/>
      <point x="297" y="191" type="line"/>
    </contour>
    <contour>
      <point x="208" y="599" type="line"/>
      <point x="194" y="599" type="line"/>
      <point x="206" y="240" type="line"/>
      <point x="287" y="240" type="line"/>
    </contour>
    <contour>
      <point x="408" y="421" type="line"/>
      <point x="326" y="421" type="line"/>
      <point x="406" y="56" type="line"/>
      <point x="420" y="56" type="line"/>
    </contour>
  </outline>
</glyph>
<glyph name="uni20B9" format="2">
  <advance width="614"/>
  <unicode hex="20B9"/>
  <outline>
    <contour>
      <point x="326" y="409" type="qcurve"/>
      <point x="60" y="409" type="line"/>
      <point x="60" y="493" type="line"/>
      <point x="326" y="493" type="line"/>
      <point x="326" y="579" type="line"/>
      <point x="60" y="579" type="line"/>
      <point x="60" y="655" type="line"/>
      <point x="558" y="655" type="line"/>
      <point x="558" y="579" type="line"/>
      <point x="470" y="579" type="line"/>
      <point x="470" y="493" type="line"/>
      <point x="558" y="493" type="line"/>
      <point x="558" y="409" type="line"/>
      <point x="470" y="409" type="line"/>
      <point x="466" y="320"/>
      <point x="370" y="216"/>
      <point x="279" y="203" type="qcurve"/>
      <point x="279" y="203" type="line"/>
      <point x="279" y="199" type="line"/>
      <point x="552" y="2" type="line"/>
      <point x="552" y="0" type="line"/>
      <point x="346" y="0" type="line"/>
      <point x="60" y="209" type="line"/>
      <point x="60" y="308" type="line"/>
      <point x="223" y="308" type="line"/>
      <point x="273" y="308"/>
      <point x="323" y="357"/>
    </contour>
  </outline>
</glyph>
<glyph name="uni20BA" format="2">
  <advance width="614"/>
  <unicode hex="20BA"/>
  <outline>
    <contour>
      <point x="98" y="175" type="line"/>
      <point x="28" y="131" type="line"/>
      <point x="28" y="215" type="line"/>
      <point x="98" y="257" type="line"/>
      <point x="98" y="349" type="line"/>
      <point x="28" y="307" type="line"/>
      <point x="28" y="391" type="line"/>
      <point x="98" y="433" type="line"/>
      <point x="98" y="655" type="line"/>
      <point x="243" y="655" type="line"/>
      <point x="243" y="509" type="line"/>
      <point x="432" y="619" type="line"/>
      <point x="432" y="535" type="line"/>
      <point x="243" y="425" type="line"/>
      <point x="243" y="333" type="line"/>
      <point x="432" y="442" type="line"/>
      <point x="432" y="359" type="line"/>
      <point x="243" y="252" type="line"/>
      <point x="243" y="119" type="line"/>
      <point x="298" y="119" type="line"/>
      <point x="357" y="119"/>
      <point x="428" y="187"/>
      <point x="445" y="259" type="qcurve"/>
      <point x="575" y="234" type="line"/>
      <point x="549" y="114"/>
      <point x="416" y="0"/>
      <point x="300" y="0" type="qcurve"/>
      <point x="98" y="0" type="line"/>
    </contour>
  </outline>
</glyph>
<glyph name="uni20BD" format="2">
  <advance width="614"/>
  <unicode hex="20BD"/>
  <outline>
    <contour>
      <point x="98" y="117" type="line"/>
      <point x="21" y="117" type="line"/>
      <point x="21" y="193" type="line"/>
      <point x="98" y="193" type="line"/>
      <point x="98" y="283" type="line"/>
      <point x="21" y="283" type="line"/>
      <point x="21" y="359" type="line"/>
      <point x="98" y="359" type="line"/>
      <point x="98" y="655" type="line"/>
      <point x="364" y="655" type="line"/>
      <point x="475" y="655"/>
      <point x="589" y="558"/>
      <point x="589" y="464" type="qcurve"/>
      <point x="589" y="368"/>
      <point x="471" y="283"/>
      <point x="338" y="283" type="qcurve"/>
      <point x="240" y="283" type="line"/>
      <point x="240" y="193" type="line"/>
      <point x="427" y="193" type="line"/>
      <point x="427" y="117" type="line"/>
      <point x="240" y="117" type="line"/>
      <point x="240" y="0" type="line"/>
      <point x="98" y="0" type="line"/>
    </contour>
    <contour>
      <point x="447" y="449" type="qcurve"/>
      <point x="447" y="493"/>
      <point x="397" y="535"/>
      <point x="343" y="535" type="qcurve"/>
      <point x="240" y="535" type="line"/>
      <point x="240" y="359" type="line"/>
      <point x="323" y="359" type="line"/>
      <point x="385" y="359"/>
      <point x="447" y="404"/>
    </contour>
  </outline>
</glyph>
<glyph name="published" format="2">
  <advance width="614"/>
  <unicode hex="2117"/>
  <outline>
    <contour>
      <point x="307" y="725" type="qcurve"/>
      <point x="438" y="725"/>
      <point x="557" y="533"/>
      <point x="557" y="328" type="qcurve"/>
      <point x="557" y="123"/>
      <point x="437" y="-70"/>
      <point x="307" y="-70" type="qcurve"/>
      <point x="177" y="-70"/>
      <point x="57" y="123"/>
      <point x="57" y="328" type="qcurve"/>
      <point x="57" y="532"/>
      <point x="177" y="725"/>
    </contour>
    <contour>
      <point x="307" y="680" type="qcurve"/>
      <point x="200" y="680"/>
      <point x="107" y="512"/>
      <point x="107" y="328" type="qcurve"/>
      <point x="107" y="144"/>
      <point x="200" y="-25"/>
      <point x="307" y="-25" type="qcurve"/>
      <point x="414" y="-25"/>
      <point x="507" y="143"/>
      <point x="507" y="328" type="qcurve"/>
      <point x="507" y="513"/>
      <point x="414" y="680"/>
    </contour>
    <contour>
      <point x="209" y="105" type="line"/>
      <point x="209" y="550" type="line"/>
      <point x="310" y="550" type="line"/>
      <point x="380" y="550"/>
      <point x="441" y="477"/>
      <point x="441" y="395" type="qcurve"/>
      <point x="441" y="316"/>
      <point x="373" y="243"/>
      <point x="299" y="243" type="qcurve"/>
      <point x="291" y="243" type="line"/>
      <point x="291" y="105" type="line"/>
    </contour>
    <contour>
      <point x="359" y="393" type="qcurve"/>
      <point x="359" y="438"/>
      <point x="337" y="474"/>
      <point x="308" y="474" type="qcurve"/>
      <point x="291" y="474" type="line"/>
      <point x="291" y="322" type="line"/>
      <point x="304" y="322" type="line"/>
      <point x="335" y="322"/>
      <point x="359" y="354"/>
    </contour>
  </outline>
</glyph>
<glyph name="notequal" format="2">
  <advance width="614"/>
  <unicode hex="2260"/>
  <outline>
    <contour>
      <point x="180" y="161" type="line"/>
      <point x="81" y="161" type="line"/>
      <point x="81" y="276" type="line"/>
      <point x="231" y="269" type="line"/>
      <point x="259" y="331" type="line"/>
      <point x="284" y="393" type="line"/>
      <point x="81" y="384" type="line"/>
      <point x="81" y="500" type="line"/>
      <point x="327" y="500" type="line"/>
      <point x="390" y="655" type="line"/>
      <point x="501" y="655" type="line"/>
      <point x="427" y="500" type="line"/>
      <point x="533" y="500" type="line"/>
      <point x="533" y="384" type="line"/>
      <point x="375" y="391" type="line"/>
      <point x="346" y="331" type="line"/>
      <point x="321" y="267" type="line"/>
      <point x="533" y="276" type="line"/>
      <point x="533" y="161" type="line"/>
      <point x="280" y="161" type="line"/>
      <point x="217" y="0" type="line"/>
      <point x="106" y="0" type="line"/>
    </contour>
  </outline>
</glyph>
<glyph name="greaterequal" format="2">
  <advance width="614"/>
  <unicode hex="2265"/>
  <outline>
    <contour>
      <point x="536" y="366" type="line"/>
      <point x="90" y="192" type="line"/>
      <point x="90" y="327" type="line"/>
      <point x="380" y="431" type="line"/>
      <point x="90" y="534" type="line"/>
      <point x="90" y="669" type="line"/>
      <point x="536" y="497" type="line"/>
    </contour>
    <contour>
      <point x="536" y="116" type="line"/>
      <point x="536" y="0" type="line"/>
      <point x="90" y="0" type="line"/>
      <point x="90" y="116" type="line"/>
    </contour>
  </outline>
</glyph>
<glyph name="acutecmb.cap" format="2">
  <outline>
    <contour>
      <point x="-60" y="731" type="line"/>
      <point x="-98" y="810" type="line"/>
      <point x="141" y="931" type="line"/>
      <point x="187" y="837" type="line"/>
    </contour>
  </outline>
</glyph>
<glyph name="breveacute.cap" format="2">
  <outline>
    <contour>
      <point x="-34" y="901" type="line"/>
      <point x="-60" y="982" type="line"/>
      <point x="193" y="1071" type="line"/>
      <point x="224" y="974" type="line"/>
    </contour>
    <contour>
      <point x="0" y="826" type="qcurve"/>
      <point x="43" y="826"/>
      <point x="100" y="865"/>
      <point x="114" y="903" type="qcurve"/>
      <point x="198" y="873" type="line"/>
      <point x="180" y="805"/>
      <point x="75" y="731"/>
      <point x="0" y="731" type="qcurve"/>
      <point x="-74" y="731"/>
      <point x="-179" y="810"/>
      <point x="-198" y="883" type="qcurve"/>
      <point x="-114" y="913" type="line"/>
      <point x="-98" y="869"/>
      <point x="-42" y="826"/>
    </contour>
  </outline>
</glyph>
<glyph name="brevecmb.cap" format="2">
  <outline>
    <contour>
      <point x="0" y="826" type="qcurve"/>
      <point x="40" y="826"/>
      <point x="97" y="875"/>
      <point x="114" y="923" type="qcurve"/>
      <point x="198" y="893" type="line"/>
      <point x="177" y="815"/>
      <point x="74" y="731"/>
      <point x="0" y="731" type="qcurve"/>
      <point x="-74" y="731"/>
      <point x="-177" y="815"/>
      <point x="-198" y="893" type="qcurve"/>
      <point x="-114" y="923" type="line"/>
      <point x="-97" y="874"/>
      <point x="-40" y="826"/>
    </contour>
  </outline>
</glyph>
<glyph name="brevehook.cap" format="2">
  <outline>
    <contour>
      <point x="149" y="1017" type="qcurve"/>
      <point x="149" y="977"/>
      <point x="53" y="919"/>
      <point x="-41" y="903" type="qcurve"/>
      <point x="-71" y="960" type="line"/>
      <point x="-71" y="962" type="line"/>
      <point x="-16" y="974"/>
      <point x="25" y="990"/>
      <point x="25" y="1001" type="qcurve"/>
      <point x="25" y="1011"/>
      <point x="-36" y="1025"/>
      <point x="-117" y="1036" type="qcurve"/>
      <point x="-117" y="1038" type="line"/>
      <point x="-65" y="1107" type="line"/>
      <point x="49" y="1094"/>
      <point x="149" y="1053"/>
    </contour>
    <contour>
      <point x="0" y="826" type="qcurve"/>
      <point x="43" y="826"/>
      <point x="100" y="865"/>
      <point x="114" y="903" type="qcurve"/>
      <point x="198" y="873" type="line"/>
      <point x="180" y="805"/>
      <point x="75" y="731"/>
      <point x="0" y="731" type="qcurve"/>
      <point x="-74" y="731"/>
      <point x="-179" y="810"/>
      <point x="-198" y="883" type="qcurve"/>
      <point x="-114" y="913" type="line"/>
      <point x="-98" y="869"/>
      <point x="-42" y="826"/>
    </contour>
  </outline>
</glyph>
<glyph name="brevetilde.cap" format="2">
  <outline>
    <contour>
      <point x="-86" y="1106" type="qcurve"/>
      <point x="-67" y="1106"/>
      <point x="-30" y="1091"/>
      <point x="3" y="1072" type="qcurve"/>
      <point x="35" y="1053"/>
      <point x="64" y="1040"/>
      <point x="73" y="1040" type="qcurve"/>
      <point x="84" y="1040"/>
      <point x="104" y="1071"/>
      <point x="124" y="1117" type="qcurve"/>
      <point x="200" y="1088" type="line"/>
      <point x="174" y="1013"/>
      <point x="124" y="946"/>
      <point x="85" y="946" type="qcurve"/>
      <point x="66" y="946"/>
      <point x="29" y="961"/>
      <point x="-4" y="980" type="qcurve"/>
      <point x="-36" y="999"/>
      <point x="-65" y="1012"/>
      <point x="-74" y="1012" type="qcurve"/>
      <point x="-85" y="1012"/>
      <point x="-105" y="981"/>
      <point x="-125" y="935" type="qcurve"/>
      <point x="-201" y="964" type="line"/>
      <point x="-175" y="1039"/>
      <point x="-125" y="1106"/>
    </contour>
    <contour>
      <point x="0" y="826" type="qcurve"/>
      <point x="41" y="826"/>
      <point x="99" y="870"/>
      <point x="114" y="913" type="qcurve"/>
      <point x="198" y="883" type="line"/>
      <point x="179" y="810"/>
      <point x="74" y="731"/>
      <point x="0" y="731" type="qcurve"/>
      <point x="-75" y="731"/>
      <point x="-180" y="805"/>
      <point x="-198" y="873" type="qcurve"/>
      <point x="-114" y="903" type="line"/>
      <point x="-101" y="865"/>
      <point x="-44" y="826"/>
    </contour>
  </outline>
</glyph>
<glyph name="brevetilde" format="2">
  <outline>
    <contour>
      <point x="-77" y="945" type="qcurve"/>
      <point x="-60" y="945"/>
      <point x="-27" y="930"/>
      <point x="11" y="905" type="qcurve"/>
      <point x="55" y="877"/>
      <point x="70" y="869"/>
      <point x="76" y="869" type="qcurve"/>
      <point x="89" y="869"/>
      <point x="112" y="907"/>
      <point x="128" y="948" type="qcurve"/>
      <point x="203" y="925" type="line"/>
      <point x="175" y="844"/>
      <point x="122" y="776"/>
      <point x="88" y="776" type="qcurve"/>
      <point x="71" y="776"/>
      <point x="38" y="791"/>
      <point x="0" y="816" type="qcurve"/>
      <point x="-44" y="844"/>
      <point x="-59" y="852"/>
      <point x="-65" y="852" type="qcurve"/>
      <point x="-78" y="852"/>
      <point x="-101" y="814"/>
      <point x="-117" y="773" type="qcurve"/>
      <point x="-192" y="796" type="line"/>
      <point x="-164" y="877"/>
      <point x="-111" y="945"/>
    </contour>
    <contour>
      <point x="0" y="648" type="qcurve"/>
      <point x="40" y="648"/>
      <point x="97" y="697"/>
      <point x="114" y="745" type="qcurve"/>
      <point x="198" y="715" type="line"/>
      <point x="177" y="637"/>
      <point x="74" y="553"/>
      <point x="0" y="553" type="qcurve"/>
      <point x="-74" y="553"/>
      <point x="-177" y="637"/>
      <point x="-198" y="715" type="qcurve"/>
      <point x="-114" y="745" type="line"/>
      <point x="-97" y="696"/>
      <point x="-40" y="648"/>
    </contour>
  </outline>
</glyph>
<glyph name="caroncmb.cap" format="2">
  <outline>
    <contour>
      <point x="159" y="920" type="line"/>
      <point x="200" y="850" type="line"/>
      <point x="22" y="731" type="line"/>
      <point x="-20" y="731" type="line"/>
      <point x="-199" y="850" type="line"/>
      <point x="-159" y="920" type="line"/>
      <point x="1" y="836" type="line"/>
    </contour>
  </outline>
</glyph>
<glyph name="circumflexacute.cap" format="2">
  <outline>
    <contour>
      <point x="114" y="892" type="line"/>
      <point x="76" y="971" type="line"/>
      <point x="231" y="1053" type="line"/>
      <point x="277" y="959" type="line"/>
    </contour>
    <contour>
      <point x="-158" y="731" type="line"/>
      <point x="-199" y="801" type="line"/>
      <point x="-21" y="910" type="line"/>
      <point x="21" y="910" type="line"/>
      <point x="200" y="801" type="line"/>
      <point x="160" y="731" type="line"/>
      <point x="0" y="806" type="line"/>
    </contour>
  </outline>
</glyph>
<glyph name="circumflexacute" format="2">
  <outline>
    <contour>
      <point x="118" y="733" type="line"/>
      <point x="85" y="805" type="line"/>
      <point x="262" y="885" type="line"/>
      <point x="300" y="798" type="line"/>
    </contour>
    <contour>
      <point x="-141" y="553" type="line"/>
      <point x="-188" y="609" type="line"/>
      <point x="-31" y="738" type="line"/>
      <point x="31" y="738" type="line"/>
      <point x="188" y="609" type="line"/>
      <point x="141" y="553" type="line"/>
      <point x="0" y="638" type="line"/>
    </contour>
  </outline>
</glyph>
<glyph name="circumflexcmb.cap" format="2">
  <outline>
    <contour>
      <point x="-158" y="731" type="line"/>
      <point x="-199" y="801" type="line"/>
      <point x="-21" y="920" type="line"/>
      <point x="21" y="920" type="line"/>
      <point x="200" y="801" type="line"/>
      <point x="160" y="731" type="line"/>
      <point x="0" y="815" type="line"/>
    </contour>
  </outline>
</glyph>
<glyph name="circumflextilde.cap" format="2">
  <outline>
    <contour>
      <point x="-79" y="1106" type="qcurve"/>
      <point x="-60" y="1106"/>
      <point x="-23" y="1091"/>
      <point x="10" y="1072" type="qcurve"/>
      <point x="42" y="1053"/>
      <point x="71" y="1040"/>
      <point x="80" y="1040" type="qcurve"/>
      <point x="91" y="1040"/>
      <point x="111" y="1071"/>
      <point x="131" y="1117" type="qcurve"/>
      <point x="207" y="1088" type="line"/>
      <point x="181" y="1013"/>
      <point x="131" y="946"/>
      <point x="92" y="946" type="qcurve"/>
      <point x="73" y="946"/>
      <point x="36" y="961"/>
      <point x="3" y="980" type="qcurve"/>
      <point x="-29" y="999"/>
      <point x="-58" y="1012"/>
      <point x="-67" y="1012" type="qcurve"/>
      <point x="-78" y="1012"/>
      <point x="-98" y="981"/>
      <point x="-118" y="935" type="qcurve"/>
      <point x="-194" y="964" type="line"/>
      <point x="-168" y="1039"/>
      <point x="-118" y="1106"/>
    </contour>
    <contour>
      <point x="-158" y="731" type="line"/>
      <point x="-199" y="801" type="line"/>
      <point x="-21" y="910" type="line"/>
      <point x="21" y="910" type="line"/>
      <point x="200" y="801" type="line"/>
      <point x="160" y="731" type="line"/>
      <point x="0" y="806" type="line"/>
    </contour>
  </outline>
</glyph>
<glyph name="dieresiscaron.cap" format="2">
  <outline>
    <contour>
      <point x="159" y="1082" type="line"/>
      <point x="195" y="1017" type="line"/>
      <point x="22" y="908" type="line"/>
      <point x="-20" y="908" type="line"/>
      <point x="-194" y="1017" type="line"/>
      <point x="-159" y="1082" type="line"/>
      <point x="1" y="1007" type="line"/>
    </contour>
    <contour>
      <point x="-51" y="817" type="qcurve"/>
      <point x="-51" y="786"/>
      <point x="-91" y="751"/>
      <point x="-126" y="751" type="qcurve"/>
      <point x="-161" y="751"/>
      <point x="-199" y="785"/>
      <point x="-199" y="817" type="qcurve"/>
      <point x="-199" y="847"/>
      <point x="-159" y="884"/>
      <point x="-125" y="884" type="qcurve"/>
      <point x="-89" y="884"/>
      <point x="-51" y="850"/>
    </contour>
    <contour>
      <point x="199" y="817" type="qcurve"/>
      <point x="199" y="786"/>
      <point x="159" y="751"/>
      <point x="124" y="751" type="qcurve"/>
      <point x="89" y="751"/>
      <point x="51" y="785"/>
      <point x="51" y="817" type="qcurve"/>
      <point x="51" y="847"/>
      <point x="91" y="884"/>
      <point x="125" y="884" type="qcurve"/>
      <point x="161" y="884"/>
      <point x="199" y="850"/>
    </contour>
  </outline>
</glyph>
<glyph name="dieresiscmb.cap" format="2">
  <outline>
    <contour>
      <point x="-51" y="822" type="qcurve"/>
      <point x="-51" y="788"/>
      <point x="-91" y="751"/>
      <point x="-126" y="751" type="qcurve"/>
      <point x="-161" y="751"/>
      <point x="-199" y="788"/>
      <point x="-199" y="822" type="qcurve"/>
      <point x="-199" y="854"/>
      <point x="-159" y="894"/>
      <point x="-125" y="894" type="qcurve"/>
      <point x="-89" y="894"/>
      <point x="-51" y="857"/>
    </contour>
    <contour>
      <point x="199" y="822" type="qcurve"/>
      <point x="199" y="788"/>
      <point x="159" y="751"/>
      <point x="124" y="751" type="qcurve"/>
      <point x="89" y="751"/>
      <point x="51" y="788"/>
      <point x="51" y="822" type="qcurve"/>
      <point x="51" y="854"/>
      <point x="91" y="894"/>
      <point x="125" y="894" type="qcurve"/>
      <point x="161" y="894"/>
      <point x="199" y="857"/>
    </contour>
  </outline>
</glyph>
<glyph name="dieresisgrave.cap" format="2">
  <outline>
    <contour>
      <point x="-191" y="1084" type="line"/>
      <point x="62" y="995" type="line"/>
      <point x="36" y="914" type="line"/>
      <point x="-222" y="987" type="line"/>
    </contour>
    <contour>
      <point x="-51" y="817" type="qcurve"/>
      <point x="-51" y="786"/>
      <point x="-91" y="751"/>
      <point x="-126" y="751" type="qcurve"/>
      <point x="-161" y="751"/>
      <point x="-199" y="785"/>
      <point x="-199" y="817" type="qcurve"/>
      <point x="-199" y="847"/>
      <point x="-159" y="884"/>
      <point x="-125" y="884" type="qcurve"/>
      <point x="-89" y="884"/>
      <point x="-51" y="850"/>
    </contour>
    <contour>
      <point x="199" y="817" type="qcurve"/>
      <point x="199" y="786"/>
      <point x="159" y="751"/>
      <point x="124" y="751" type="qcurve"/>
      <point x="89" y="751"/>
      <point x="51" y="785"/>
      <point x="51" y="817" type="qcurve"/>
      <point x="51" y="847"/>
      <point x="91" y="884"/>
      <point x="125" y="884" type="qcurve"/>
      <point x="161" y="884"/>
      <point x="199" y="850"/>
    </contour>
  </outline>
</glyph>
<glyph name="dieresisgrave" format="2">
  <outline>
    <contour>
      <point x="-140" y="906" type="line"/>
      <point x="105" y="800" type="line"/>
      <point x="71" y="723" type="line"/>
      <point x="-179" y="814" type="line"/>
    </contour>
    <contour>
      <point x="-41" y="634" type="qcurve"/>
      <point x="-41" y="605"/>
      <point x="-80" y="573"/>
      <point x="-116" y="573" type="qcurve"/>
      <point x="-151" y="573"/>
      <point x="-189" y="605"/>
      <point x="-189" y="634" type="qcurve"/>
      <point x="-189" y="662"/>
      <point x="-149" y="696"/>
      <point x="-115" y="696" type="qcurve"/>
      <point x="-79" y="696"/>
      <point x="-41" y="664"/>
    </contour>
    <contour>
      <point x="189" y="634" type="qcurve"/>
      <point x="189" y="605"/>
      <point x="150" y="573"/>
      <point x="114" y="573" type="qcurve"/>
      <point x="79" y="573"/>
      <point x="41" y="605"/>
      <point x="41" y="634" type="qcurve"/>
      <point x="41" y="662"/>
      <point x="81" y="696"/>
      <point x="115" y="696" type="qcurve"/>
      <point x="151" y="696"/>
      <point x="189" y="664"/>
    </contour>
  </outline>
</glyph>
<glyph name="dotaccentcmb.cap" format="2">
  <outline>
    <contour>
      <point x="80" y="827" type="qcurve"/>
      <point x="80" y="791"/>
      <point x="38" y="751"/>
      <point x="0" y="751" type="qcurve"/>
      <point x="-37" y="751"/>
      <point x="-78" y="791"/>
      <point x="-78" y="827" type="qcurve"/>
      <point x="-78" y="862"/>
      <point x="-35" y="904"/>
      <point x="1" y="904" type="qcurve"/>
      <point x="39" y="904"/>
      <point x="80" y="864"/>
    </contour>
  </outline>
</glyph>
<glyph name="four.den" format="2">
  <advance width="614"/>
  <outline>
    <contour>
      <point x="327" y="88" type="line"/>
      <point x="149" y="88" type="line"/>
      <point x="149" y="151" type="line"/>
      <point x="312" y="380" type="line"/>
      <point x="412" y="380" type="line"/>
      <point x="412" y="161" type="line"/>
      <point x="484" y="161" type="line"/>
      <point x="484" y="88" type="line"/>
      <point x="412" y="88" type="line"/>
      <point x="412" y="0" type="line"/>
      <point x="327" y="0" type="line"/>
    </contour>
    <contour>
      <point x="333" y="152" type="line"/>
      <point x="333" y="320" type="line"/>
      <point x="223" y="157" type="line"/>
      <point x="223" y="152" type="line"/>
    </contour>
  </outline>
</glyph>
<glyph name="hungarumlautcmb.cap" format="2">
  <outline>
    <contour>
      <point x="-118" y="730" type="line"/>
      <point x="-183" y="797" type="line"/>
      <point x="-49" y="926" type="line"/>
      <point x="24" y="850" type="line"/>
    </contour>
    <contour>
      <point x="117" y="730" type="line"/>
      <point x="52" y="797" type="line"/>
      <point x="186" y="926" type="line"/>
      <point x="259" y="850" type="line"/>
    </contour>
  </outline>
</glyph>
<glyph name="middotcat.cap" format="2">
  <advance width="614"/>
  <outline>
    <contour>
      <point x="326" y="387" type="qcurve"/>
      <point x="326" y="334"/>
      <point x="283" y="278"/>
      <point x="242" y="278" type="qcurve"/>
      <point x="201" y="278"/>
      <point x="160" y="332"/>
      <point x="160" y="386" type="qcurve"/>
      <point x="160" y="438"/>
      <point x="203" y="495"/>
      <point x="243" y="495" type="qcurve"/>
      <point x="285" y="495"/>
      <point x="326" y="442"/>
    </contour>
  </outline>
</glyph>
<glyph name="middotcat" format="2">
  <advance width="614"/>
  <outline>
    <contour>
      <point x="396" y="364" type="qcurve"/>
      <point x="396" y="311"/>
      <point x="353" y="255"/>
      <point x="312" y="255" type="qcurve"/>
      <point x="271" y="255"/>
      <point x="230" y="309"/>
      <point x="230" y="363" type="qcurve"/>
      <point x="230" y="415"/>
      <point x="274" y="472"/>
      <point x="313" y="472" type="qcurve"/>
      <point x="355" y="472"/>
      <point x="396" y="419"/>
    </contour>
  </outline>
</glyph>
<glyph name="nine.den" format="2">
  <advance width="614"/>
  <outline>
    <contour>
      <point x="463" y="255" type="qcurve"/>
      <point x="463" y="204"/>
      <point x="414" y="112"/>
      <point x="352" y="47" type="qcurve"/>
      <point x="306" y="0" type="line"/>
      <point x="189" y="0" type="line"/>
      <point x="189" y="1" type="line"/>
      <point x="269" y="77" type="line"/>
      <point x="283" y="90"/>
      <point x="309" y="119"/>
      <point x="320" y="133" type="qcurve"/>
      <point x="312" y="131"/>
      <point x="295" y="129"/>
      <point x="286" y="129" type="qcurve"/>
      <point x="220" y="129"/>
      <point x="147" y="197"/>
      <point x="147" y="258" type="qcurve"/>
      <point x="147" y="319"/>
      <point x="238" y="395"/>
      <point x="310" y="395" type="qcurve"/>
      <point x="380" y="395"/>
      <point x="463" y="318"/>
    </contour>
    <contour>
      <point x="357" y="197" type="qcurve"/>
      <point x="363" y="211"/>
      <point x="369" y="239"/>
      <point x="369" y="253" type="qcurve"/>
      <point x="369" y="282"/>
      <point x="336" y="317"/>
      <point x="309" y="317" type="qcurve"/>
      <point x="278" y="317"/>
      <point x="243" y="286"/>
      <point x="243" y="257" type="qcurve"/>
      <point x="243" y="224"/>
      <point x="278" y="191"/>
      <point x="311" y="191" type="qcurve"/>
      <point x="326" y="191"/>
      <point x="347" y="194"/>
    </contour>
  </outline>
</glyph>
<glyph name="one.den" format="2">
  <advance width="614"/>
  <outline>
    <contour>
      <point x="454" y="0" type="line"/>
      <point x="168" y="0" type="line"/>
      <point x="168" y="80" type="line"/>
      <point x="268" y="80" type="line"/>
      <point x="268" y="264" type="line"/>
      <point x="168" y="219" type="line"/>
      <point x="168" y="310" type="line"/>
      <point x="325" y="380" type="line"/>
      <point x="362" y="380" type="line"/>
      <point x="362" y="80" type="line"/>
      <point x="454" y="80" type="line"/>
    </contour>
  </outline>
</glyph>
<glyph name="six.den" format="2">
  <advance width="614"/>
  <outline>
    <contour>
      <point x="327" y="251" type="qcurve"/>
      <point x="393" y="251"/>
      <point x="466" y="183"/>
      <point x="466" y="122" type="qcurve"/>
      <point x="466" y="61"/>
      <point x="375" y="-15"/>
      <point x="303" y="-15" type="qcurve"/>
      <point x="233" y="-15"/>
      <point x="150" y="62"/>
      <point x="150" y="125" type="qcurve"/>
      <point x="150" y="176"/>
      <point x="199" y="268"/>
      <point x="261" y="333" type="qcurve"/>
      <point x="307" y="380" type="line"/>
      <point x="424" y="380" type="line"/>
      <point x="424" y="379" type="line"/>
      <point x="344" y="303" type="line"/>
      <point x="330" y="290"/>
      <point x="304" y="261"/>
      <point x="293" y="247" type="qcurve"/>
      <point x="301" y="249"/>
      <point x="318" y="251"/>
    </contour>
    <contour>
      <point x="256" y="183" type="qcurve"/>
      <point x="250" y="169"/>
      <point x="244" y="141"/>
      <point x="244" y="127" type="qcurve"/>
      <point x="244" y="98"/>
      <point x="277" y="63"/>
      <point x="304" y="63" type="qcurve"/>
      <point x="335" y="63"/>
      <point x="370" y="94"/>
      <point x="370" y="123" type="qcurve"/>
      <point x="370" y="156"/>
      <point x="335" y="189"/>
      <point x="302" y="189" type="qcurve"/>
      <point x="287" y="189"/>
      <point x="266" y="186"/>
    </contour>
  </outline>
</glyph>
<glyph name="tildecmb.cap" format="2">
  <outline>
    <contour>
      <point x="128" y="924" type="qcurve"/>
      <point x="210" y="895" type="line"/>
      <point x="181" y="809"/>
      <point x="124" y="731"/>
      <point x="81" y="731" type="qcurve"/>
      <point x="61" y="731"/>
      <point x="23" y="749"/>
      <point x="-7" y="772" type="qcurve"/>
      <point x="-35" y="794"/>
      <point x="-67" y="814"/>
      <point x="-78" y="814" type="qcurve"/>
      <point x="-90" y="814"/>
      <point x="-114" y="771"/>
      <point x="-129" y="725" type="qcurve"/>
      <point x="-211" y="754" type="line"/>
      <point x="-182" y="840"/>
      <point x="-125" y="918"/>
      <point x="-82" y="918" type="qcurve"/>
      <point x="-62" y="918"/>
      <point x="-24" y="900"/>
      <point x="6" y="877" type="qcurve"/>
      <point x="34" y="855"/>
      <point x="66" y="835"/>
      <point x="77" y="835" type="qcurve"/>
      <point x="89" y="835"/>
      <point x="113" y="878"/>
    </contour>
  </outline>
</glyph>
<glyph name="two.den" format="2">
  <advance width="614"/>
  <outline>
    <contour>
      <point x="463" y="0" type="line"/>
      <point x="160" y="0" type="line"/>
      <point x="160" y="71" type="line"/>
      <point x="284" y="173" type="line"/>
      <point x="327" y="208"/>
      <point x="360" y="248"/>
      <point x="360" y="271" type="qcurve"/>
      <point x="360" y="288"/>
      <point x="340" y="308"/>
      <point x="323" y="308" type="qcurve"/>
      <point x="297" y="308"/>
      <point x="240" y="278"/>
      <point x="197" y="243" type="qcurve"/>
      <point x="153" y="311" type="line"/>
      <point x="208" y="355"/>
      <point x="290" y="392"/>
      <point x="333" y="392" type="qcurve"/>
      <point x="387" y="392"/>
      <point x="455" y="331"/>
      <point x="455" y="282" type="qcurve"/>
      <point x="455" y="241"/>
      <point x="412" y="177"/>
      <point x="360" y="138" type="qcurve"/>
      <point x="287" y="83" type="line"/>
      <point x="287" y="81" type="line"/>
      <point x="463" y="81" type="line"/>
    </contour>
  </outline>
</glyph>
<glyph name="zero.den" format="2">
  <advance width="614"/>
  <outline>
    <contour>
      <point x="308" y="395" type="qcurve"/>
      <point x="388" y="395"/>
      <point x="468" y="293"/>
      <point x="468" y="191" type="qcurve"/>
      <point x="468" y="88"/>
      <point x="387" y="-15"/>
      <point x="306" y="-15" type="qcurve"/>
      <point x="226" y="-15"/>
      <point x="146" y="87"/>
      <point x="146" y="190" type="qcurve"/>
      <point x="146" y="292"/>
      <point x="227" y="395"/>
    </contour>
    <contour>
      <point x="307" y="310" type="qcurve"/>
      <point x="266" y="310"/>
      <point x="235" y="257"/>
      <point x="235" y="191" type="qcurve"/>
      <point x="235" y="176"/>
      <point x="235" y="162"/>
      <point x="236" y="157" type="qcurve"/>
      <point x="366" y="279" type="line"/>
      <point x="358" y="295"/>
      <point x="330" y="310"/>
    </contour>
    <contour>
      <point x="307" y="69" type="qcurve"/>
      <point x="348" y="69"/>
      <point x="379" y="123"/>
      <point x="379" y="190" type="qcurve"/>
      <point x="379" y="205"/>
      <point x="379" y="219"/>
      <point x="378" y="224" type="qcurve"/>
      <point x="248" y="102" type="line"/>
      <point x="256" y="85"/>
      <point x="283" y="69"/>
    </contour>
  </outline>
</glyph>
